<?xml version="1.0" standalone="no"?>
<!DOCTYPE svg PUBLIC "-//W3C//DTD SVG 20010904//EN"
 "http://www.w3.org/TR/2001/REC-SVG-20010904/DTD/svg10.dtd">
<svg version="1.0" xmlns="http://www.w3.org/2000/svg"
 width="120.000000pt" height="120.000000pt" viewBox="0 0 120.000000 120.000000"
 preserveAspectRatio="xMidYMid meet">
<metadata>
Created by potrace 1.14, written by Peter Selinger 2001-2017
</metadata>
<g transform="translate(0.000000,120.000000) scale(0.100000,-0.100000)"
fill="#000000" stroke="none">
<path d="M255 790 c3 -5 14 -10 25 -10 10 0 21 -7 24 -16 3 -9 6 -101 6 -205
l0 -189 30 0 30 0 0 200 0 200 75 0 c62 0 79 -4 95 -20 11 -11 20 -27 20 -35
0 -8 5 -15 10 -15 16 0 12 67 -6 84 -13 13 -42 16 -165 16 -98 0 -148 -4 -144
-10z"/>
<path d="M605 790 c3 -5 13 -10 20 -10 29 0 35 -40 35 -224 l0 -186 30 0 30 0
0 85 0 85 48 0 c26 1 65 7 86 15 22 8 43 12 47 9 25 -15 44 104 26 156 -9 26
-24 41 -57 58 -38 19 -60 22 -158 22 -73 0 -111 -4 -107 -10z m229 -49 c42
-44 40 -104 -3 -143 -30 -27 -62 -35 -95 -22 -13 5 -16 24 -16 100 l0 94 43 0
c35 0 49 -6 71 -29z"/>
<path d="M71 578 l-50 -62 48 -60 c68 -87 89 -87 51 -2 l-30 66 30 60 c41 81
17 80 -49 -2z"/>
<path d="M1071 579 l31 -61 -31 -58 c-17 -32 -31 -61 -31 -64 0 -15 27 -3 58
27 25 24 32 27 26 12 -4 -14 0 -12 18 9 15 17 24 40 23 56 -2 33 -83 139 -108
139 -15 1 -13 -7 14 -60z"/>
<path d="M143 564 l-32 -46 32 -49 c18 -27 38 -49 45 -49 16 0 15 11 -4 59
-14 35 -14 42 0 76 19 45 20 55 4 55 -7 0 -27 -21 -45 -46z"/>
<path d="M990 607 c0 -2 7 -24 16 -49 14 -42 14 -49 0 -83 -18 -43 -20 -55 -7
-55 13 0 67 55 75 76 8 20 -50 114 -70 114 -8 0 -14 -1 -14 -3z"/>
</g>
</svg>
