<?xml version="1.0" encoding="UTF-8"?>
<!DOCTYPE svg PUBLIC "-//W3C//DTD SVG 1.1//EN" "http://www.w3.org/Graphics/SVG/1.1/DTD/svg11.dtd">
<!-- Creator: CorelDRAW -->
<svg xmlns="http://www.w3.org/2000/svg" xml:space="preserve" width="117.416mm" height="77.1764mm" version="1.1" style="shape-rendering:geometricPrecision; text-rendering:geometricPrecision; image-rendering:optimizeQuality; fill-rule:evenodd; clip-rule:evenodd"
viewBox="0 0 2538.11 1668.27"
 xmlns:xlink="http://www.w3.org/1999/xlink"
 xmlns:xodm="http://www.corel.com/coreldraw/odm/2003">
 <defs>
  <style type="text/css">
   <![CDATA[
    .fil1 {fill:none}
    .fil2 {fill:#1C1B18}
    .fil3 {fill:white;fill-rule:nonzero}
    .fil0 {fill:#1C1B18;fill-rule:nonzero}
   ]]>
  </style>
 </defs>
 <g id="Слой_x0020_1">
  <metadata id="CorelCorpID_0Corel-Layer"/>
  <g id="_105553210338208">
   <path class="fil0" d="M753.7 224.69c1.59,-9.52 5.02,-18.35 10.05,-27.19 5.29,-8.5 11.89,-15.97 20.09,-22.43 8.46,-6.12 17.45,-11.21 27.49,-15.29 10.05,-4.08 20.88,-6.12 32.25,-6.12 29.87,0 53.93,7.82 71.9,23.45 18.24,15.63 27.23,35.69 27.23,60.5 0,18.35 -2.12,36.03 -5.82,52.68 -3.96,16.65 -9.25,34.66 -16.39,54.04 -3.61,10.36 -7.6,21.29 -11.94,32.78l-171.13 396.05c-0.05,-1.33 -0.09,-2.67 -0.12,-4.01 -5.38,14.45 -11.07,29.03 -17.06,43.75l-33.96 78.6c-19.03,41.8 -38.86,79.87 -59.21,113.51 -20.35,33.99 -40.71,61.52 -61.06,83.27 -20.62,21.41 -39.65,32.29 -57.89,32.29l-0.93 -8.39 246.5 -887.49z"/>
   <path class="fil0" d="M948.05 1053.37c-7.17,6.56 -16.08,13.62 -26.83,21.2 -10.65,7.48 -22.22,14.34 -34.61,20.69 -12.39,6.25 -25.09,11.47 -37.99,15.67 -12.9,4.2 -25.19,6.35 -36.76,6.35 -10.34,0 -19.15,-1.44 -26.21,-4.3 -7.07,-2.97 -12.9,-6.97 -17.31,-12.19 -4.41,-5.22 -7.48,-11.57 -9.42,-19.05 -1.84,-7.47 -2.87,-15.77 -2.87,-24.78 0,-12.59 1.43,-27.24 4.4,-43.93 2.87,-16.69 6.45,-34 10.65,-51.92 4.2,-17.92 8.6,-35.74 13.31,-53.56 4.71,-17.82 8.91,-34.2 12.49,-49.16 1.33,-5.22 4.2,-9.73 8.4,-13.41 4.2,-3.69 8.91,-6.66 14.23,-9.01 5.32,-2.25 10.75,-3.99 16.49,-5.01 5.73,-1.13 10.85,-1.74 15.46,-1.74 8.4,0 14.13,1.64 17.1,4.71 2.97,3.07 4.5,7.27 4.5,12.39 0,4.4 -1.02,10.75 -2.97,19.15 -2.05,8.29 -4.51,17.61 -7.58,28.16 -2.97,10.45 -6.14,21.81 -9.52,33.89 -3.48,12.08 -6.66,24.17 -9.63,36.25 -2.97,12.19 -5.53,23.96 -7.47,35.43 -2.05,11.47 -3.07,21.91 -3.07,31.03 0,9.01 1.02,16.18 3.07,21.5 1.95,5.33 6.04,7.89 12.29,7.89 7.17,0 15.16,-2.46 23.96,-7.48 8.81,-5.02 17.71,-11.06 26.73,-18.12 9.01,-7.07 17.82,-14.44 26.42,-22.02 8.6,-7.68 16.18,-14.13 22.74,-19.56l0 60.93zm-134.05 -308.44c0,-4.61 0.92,-9.73 2.97,-15.57 1.95,-5.84 5.22,-11.26 9.73,-16.39 4.51,-5.12 10.55,-9.42 18.03,-12.9 7.47,-3.48 16.9,-5.22 28.06,-5.22 6.96,0 13.62,0.82 19.76,2.35 6.25,1.64 11.67,4.1 16.18,7.38 4.61,3.27 8.3,7.68 10.96,13.11 2.77,5.33 4.1,11.78 4.1,19.15 0,6.86 -1.13,13.42 -3.28,19.77 -2.26,6.45 -5.74,12.19 -10.55,17.1 -4.81,5.02 -10.86,9.12 -18.13,12.19 -7.27,3.07 -16.08,4.71 -26.21,4.71 -17.61,0 -30.62,-4.2 -39.02,-12.49 -8.4,-8.29 -12.6,-19.35 -12.6,-33.18z"/>
   <path class="fil0" d="M917.13 1002.06c11.26,-9.62 20.38,-17.61 27.34,-23.96 6.96,-6.45 13.01,-12.29 18.02,-17.62 4.92,-5.33 9.52,-10.65 13.62,-16.08 4.1,-5.32 8.91,-11.78 14.54,-19.15 5.63,-7.37 12.39,-16.48 20.38,-27.14 7.99,-10.75 18.43,-24.07 31.23,-40.04 2.56,-3.58 5.53,-7.17 8.7,-10.55 3.18,-3.38 6.76,-6.45 10.65,-9.11 3.89,-2.77 8.19,-4.92 12.9,-6.66 4.71,-1.64 9.93,-2.56 15.77,-2.56 9.52,0 17,1.13 22.12,3.17 5.22,2.15 9.01,4.71 11.47,7.68 2.35,2.97 3.79,6.14 4.2,9.42 0.41,3.28 0.61,6.15 0.61,8.6 0,4.81 -1.95,10.04 -5.73,15.87 -3.79,5.84 -7.99,11.37 -12.6,16.79 -4.61,5.43 -8.91,10.34 -13,14.85 -4.2,4.5 -6.45,7.88 -7.07,10.03 0,6.25 0.41,11.88 1.33,17 0.92,5.12 2.05,10.04 3.59,14.95 1.53,4.92 3.07,10.14 4.61,15.67 1.64,5.43 3.18,11.78 4.71,19.05 1.43,7.17 2.66,15.46 3.58,24.88 0.92,9.42 1.33,20.48 1.33,33.28 7.17,-4.81 14.95,-9.12 23.24,-13.01 8.3,-3.99 17,-7.99 26.01,-12.19 9.01,-4.2 18.23,-8.91 27.75,-13.93 9.42,-5.12 19.05,-11.26 28.57,-18.54l0.3 67.28c-12.39,9.53 -26.73,18.54 -43.01,26.93 -16.28,8.4 -33.38,15.87 -51.31,22.22 -17.92,6.45 -36.04,11.47 -54.27,15.16 -18.33,3.69 -35.64,5.53 -52.13,5.53 -11.78,0 -22.73,-1.02 -32.97,-3.28 -10.14,-2.15 -19.15,-5.64 -26.83,-10.34 -7.68,-4.71 -13.93,-10.86 -18.74,-18.43 -4.81,-7.58 -7.68,-16.79 -8.7,-27.65 -2.76,0.61 -5.53,1.03 -8.29,1.23 -2.67,0.21 -5.33,0.31 -7.89,0.31 -3.28,0 -6.24,-0.1 -9.01,-0.31 -2.87,-0.2 -5.22,-0.92 -7.27,-2.25 -1.95,-1.33 -3.58,-3.38 -4.71,-6.24 -1.23,-2.97 -1.84,-7.07 -1.84,-12.49 0,-4.81 1.23,-9.22 3.58,-13.31 2.46,-4.1 5.22,-7.78 8.4,-10.96 3.18,-3.28 6.45,-6.04 9.62,-8.4 3.18,-2.46 5.64,-4.3 7.17,-5.74zm38.4 38.41c2.46,0 5.12,1.54 7.99,4.5 2.87,2.97 6.25,6.25 10.04,9.93 3.79,3.58 8.19,6.86 13.21,9.83 5.02,3.07 10.65,4.5 17.1,4.5 7.78,0 14.23,-1.23 19.36,-3.89 5.12,-2.56 9.11,-6.04 12.19,-10.34 2.97,-4.3 5.02,-9.32 6.25,-14.95 1.23,-5.73 1.84,-11.67 1.84,-17.92 0,-5.32 -0.41,-10.85 -1.13,-16.48 -0.61,-5.64 -1.54,-10.96 -2.67,-16.08 -1.12,-5.02 -2.25,-9.83 -3.58,-14.34 -1.33,-4.51 -2.46,-8.4 -3.48,-11.57l-77.11 76.81z"/>
   <path class="fil0" d="M1289.78 930.69c8.19,-10.85 17.41,-22.43 27.55,-34.82 10.24,-12.39 20.79,-23.96 31.85,-34.72 10.96,-10.65 21.91,-19.56 32.87,-26.62 10.86,-7.17 21.1,-10.65 30.72,-10.65 2.36,0 5.12,0.41 8.09,1.33 2.97,0.92 5.84,2.56 8.6,4.92 2.66,2.46 4.92,5.73 6.66,10.04 1.84,4.3 2.76,9.93 2.76,16.69 0,13.62 -1.95,26.83 -5.73,39.73 -3.79,12.9 -7.89,25.81 -12.39,38.71 -4.51,12.9 -8.6,26.01 -12.39,39.43 -3.69,13.41 -5.53,27.44 -5.53,42.09 0,7.99 1.23,14.34 3.58,19.15 2.46,4.81 5.53,7.17 9.32,7.17 4.81,0 9.93,-0.92 15.36,-2.97 5.32,-1.95 10.75,-4.61 16.18,-7.78 5.43,-3.18 10.65,-6.86 15.87,-10.96 5.22,-4.1 10.14,-8.4 14.75,-12.8 10.96,-10.14 21.81,-21.71 32.36,-34.72l5.12 79.77c-3.58,2.77 -8.19,6.25 -13.62,10.45 -5.53,4.2 -11.67,8.7 -18.33,13.42 -6.76,4.71 -13.93,9.42 -21.81,14.23 -7.78,4.81 -15.57,9.01 -23.55,12.7 -7.89,3.79 -15.77,6.76 -23.65,9.22 -7.89,2.35 -15.46,3.58 -22.63,3.58 -11.06,0 -20.58,-2.97 -28.67,-8.81 -8.09,-5.94 -14.75,-13.42 -19.97,-22.53 -5.22,-9.11 -9.11,-19.05 -11.67,-29.9 -2.56,-10.76 -3.89,-21 -3.89,-30.62 0,-6.35 0.82,-13.52 2.56,-21.4 1.64,-7.89 3.79,-15.88 6.25,-23.86 2.56,-7.99 5.32,-15.77 8.4,-23.35 3.17,-7.68 6.04,-14.44 8.7,-20.48 2.76,-5.94 5.12,-10.85 7.07,-14.64 2.05,-3.79 3.28,-6.04 3.89,-6.66l-6.24 -0.82c-3.38,2.15 -9.22,7.78 -17.31,16.79 -8.09,9.01 -17.2,20.28 -27.45,34 -10.14,13.72 -20.68,29.08 -31.64,46.19 -10.86,17.1 -20.79,34.82 -29.49,52.94 -4.4,9.01 -8.09,16.9 -10.85,23.56 -2.77,6.76 -5.53,12.29 -8.19,16.59 -2.76,4.3 -5.73,7.48 -8.91,9.73 -3.18,2.15 -7.27,3.28 -12.29,3.28 -6.55,0 -11.78,-1.95 -15.56,-5.73 -3.79,-3.79 -6.76,-8.81 -8.7,-15.16 -2.05,-6.25 -3.38,-13.42 -3.89,-21.4 -0.62,-7.99 -0.92,-16.18 -0.92,-24.58 0,-13.41 0.1,-31.03 0.41,-52.74 0.31,-21.61 1.23,-45.67 2.87,-72.09 1.64,-26.42 3.89,-54.17 6.86,-83.46 3.07,-29.19 7.27,-57.96 12.8,-86.53 5.53,-28.47 12.39,-55.71 20.68,-81.62 8.3,-25.91 18.43,-48.64 30.31,-68.41 11.88,-19.66 25.81,-35.33 41.88,-46.9 15.97,-11.57 34.41,-17.41 55.2,-17.41 10.75,0 19.66,1.64 26.52,4.81 6.86,3.18 12.39,7.68 16.49,13.52 4.09,5.73 6.96,12.7 8.6,20.79 1.54,8.09 2.36,17.2 2.36,27.13 0,14.85 -2.05,31.24 -6.24,49.26 -4.3,18.02 -9.83,36.66 -16.69,56.12 -6.86,19.36 -14.74,39.02 -23.55,58.88 -8.81,19.97 -17.82,39.22 -27.03,57.96 -9.22,18.74 -18.23,36.35 -27.14,52.94 -8.91,16.59 -16.69,31.23 -23.55,43.83l6.04 4.2zm26.73 -185.46c11.78,-30.62 20.28,-56.43 25.6,-77.42 5.33,-20.99 7.99,-36.46 7.99,-46.49 0,-15.15 -2.05,-22.73 -6.04,-22.73 -5.22,0 -12.9,8.5 -23.14,25.5 -10.14,17 -22.12,41.68 -35.94,74.04 -3.38,11.06 -6.56,22.43 -9.42,34.21 -2.97,11.77 -5.53,23.55 -7.89,35.23 -2.25,11.78 -4.4,23.24 -6.24,34.51 -1.95,11.37 -3.58,22.12 -4.92,32.26 -3.48,23.86 -6.04,47.11 -7.89,69.94 5.43,-12.6 11.37,-26.32 17.71,-41.06 6.45,-14.85 12.7,-29.49 18.94,-44.03 6.15,-14.44 11.98,-28.16 17.52,-41.06 5.53,-12.9 10.03,-23.86 13.72,-32.87z"/>
   <path class="fil0" d="M1676.16 1053.37c-7.17,6.56 -16.08,13.62 -26.83,21.2 -10.65,7.48 -22.22,14.34 -34.61,20.69 -12.39,6.25 -25.09,11.47 -37.99,15.67 -12.9,4.2 -25.19,6.35 -36.76,6.35 -10.34,0 -19.15,-1.44 -26.22,-4.3 -7.06,-2.97 -12.9,-6.97 -17.31,-12.19 -4.41,-5.22 -7.48,-11.57 -9.42,-19.05 -1.84,-7.47 -2.87,-15.77 -2.87,-24.78 0,-12.59 1.43,-27.24 4.4,-43.93 2.87,-16.69 6.45,-34 10.65,-51.92 4.2,-17.92 8.6,-35.74 13.32,-53.56 4.71,-17.82 8.91,-34.2 12.49,-49.16 1.33,-5.22 4.2,-9.73 8.4,-13.41 4.2,-3.69 8.91,-6.66 14.23,-9.01 5.33,-2.25 10.76,-3.99 16.49,-5.01 5.73,-1.13 10.86,-1.74 15.46,-1.74 8.4,0 14.13,1.64 17.1,4.71 2.97,3.07 4.5,7.27 4.5,12.39 0,4.4 -1.02,10.75 -2.97,19.15 -2.05,8.29 -4.51,17.61 -7.58,28.16 -2.97,10.45 -6.14,21.81 -9.52,33.89 -3.48,12.08 -6.66,24.17 -9.63,36.25 -2.97,12.19 -5.53,23.96 -7.47,35.43 -2.05,11.47 -3.07,21.91 -3.07,31.03 0,9.01 1.03,16.18 3.07,21.5 1.95,5.33 6.04,7.89 12.29,7.89 7.17,0 15.16,-2.46 23.96,-7.48 8.81,-5.02 17.72,-11.06 26.73,-18.12 9.01,-7.07 17.82,-14.44 26.42,-22.02 8.6,-7.68 16.18,-14.13 22.74,-19.56l0 60.93zm-134.05 -308.44c0,-4.61 0.92,-9.73 2.97,-15.57 1.95,-5.84 5.22,-11.26 9.73,-16.39 4.51,-5.12 10.55,-9.42 18.03,-12.9 7.47,-3.48 16.9,-5.22 28.06,-5.22 6.96,0 13.62,0.82 19.76,2.35 6.25,1.64 11.67,4.1 16.18,7.38 4.61,3.27 8.29,7.68 10.96,13.11 2.77,5.33 4.1,11.78 4.1,19.15 0,6.86 -1.13,13.42 -3.28,19.77 -2.25,6.45 -5.74,12.19 -10.55,17.1 -4.81,5.02 -10.86,9.12 -18.13,12.19 -7.27,3.07 -16.08,4.71 -26.22,4.71 -17.61,0 -30.62,-4.2 -39.02,-12.49 -8.39,-8.29 -12.6,-19.35 -12.6,-33.18z"/>
   <path class="fil0" d="M1654.86 1020.09c-0.61,-15.05 -1.23,-28.06 -1.84,-39.22 -0.51,-11.06 -1.13,-21.09 -1.64,-30.11 -0.51,-9.01 -0.82,-17.31 -1.02,-24.89 -0.21,-7.58 -0.31,-15.46 -0.31,-23.45 0,-20.58 0.92,-36.66 2.87,-48.13 1.95,-11.47 6.04,-17.71 12.49,-18.74l35.95 -5.73c1.02,-0.2 1.95,-0.31 2.87,-0.41 0.92,-0.1 1.84,-0.21 2.86,-0.21 6.76,0 11.98,2.05 15.77,6.04 3.69,3.99 5.63,8.6 5.84,13.82l-11.78 189.86 4.2 -0.31 78.96 -188.02c0.61,-2.87 1.95,-5.53 3.89,-8.19 2.05,-2.56 4.61,-4.81 7.78,-6.76 3.28,-1.84 6.76,-3.38 10.65,-4.61 3.89,-1.23 8.09,-1.84 12.49,-1.84 11.57,0 20.89,2.35 27.85,7.07 7.06,4.71 10.55,10.75 10.55,18.23 0,5.53 -0.82,10.85 -2.25,15.87 -1.53,5.02 -3.58,10.45 -6.35,16.28 -2.66,5.94 -5.84,12.49 -9.52,19.66 -3.79,7.27 -7.79,15.77 -12.19,25.5 -1.43,3.69 -2.56,7.37 -3.58,11.16 -1.02,3.38 -1.84,7.27 -2.56,11.57 -0.72,4.3 -1.02,8.7 -1.02,13.31 0,4.81 0.51,9.52 1.74,14.13 1.23,4.61 3.28,8.7 6.35,12.39 2.97,3.69 7.06,6.66 12.29,8.91 5.22,2.15 11.88,3.28 20.07,3.28 6.04,0 13.01,-1.53 20.89,-4.61 7.89,-3.17 15.36,-6.65 22.32,-10.65 8.19,-4.6 16.59,-9.83 25.19,-15.67l0 70.56c-13.21,8.4 -26.83,15.06 -40.96,20.07 -14.03,5.01 -27.55,7.47 -40.35,7.47 -10.76,0 -20.48,-1.64 -28.98,-4.92 -8.5,-3.28 -15.67,-7.78 -21.61,-13.42 -5.84,-5.53 -10.45,-11.88 -13.72,-18.84 -3.38,-6.96 -5.12,-14.34 -5.33,-21.91 -5.73,11.98 -12.39,24.27 -19.76,36.87 -7.37,12.59 -15.06,24.07 -22.94,34.2 -7.89,10.24 -15.77,18.53 -23.65,25.09 -7.99,6.45 -15.36,9.73 -22.43,9.73 -11.57,0 -20.59,-2.97 -26.93,-8.81 -6.45,-5.94 -11.16,-13.42 -14.34,-22.33 -3.07,-9.01 -5.02,-18.84 -5.94,-29.49 -0.92,-10.55 -1.64,-20.69 -2.25,-30.21l-0.62 -9.62z"/>
   <path class="fil0" d="M2023.22 949.53c7.27,-9.22 15.16,-19.25 23.76,-30.31 8.6,-10.96 17,-21.51 25.29,-31.44 8.4,-10.03 15.97,-18.94 22.84,-26.73 6.96,-7.78 12.39,-13.11 16.39,-15.87 6.14,-4.4 13.83,-8.19 22.73,-11.26 9.01,-3.07 19.05,-4.71 30,-4.71 5.64,0 10.96,1.33 16.08,3.99 5.12,2.56 9.52,6.24 13.41,11.06 3.79,4.81 6.76,10.55 8.91,17.41 2.25,6.76 3.38,14.34 3.38,22.84 0,8.19 -2.05,16.39 -6.04,24.68 -3.99,8.3 -9.01,16.69 -14.95,25.09 -6.04,8.4 -12.49,16.8 -19.56,25.19 -6.96,8.4 -13.52,16.9 -19.46,25.39 -6.04,8.5 -11.06,16.9 -15.05,25.29 -3.99,8.4 -5.94,16.8 -5.94,25.19 0,7.27 1.74,12.39 5.22,15.46 3.48,3.07 8.91,4.61 16.38,4.61 3.99,0 8.3,-1.33 13.01,-3.99 4.71,-2.66 9.52,-6.25 14.54,-10.65 5.02,-4.41 10.04,-9.32 15.16,-14.75 5.12,-5.32 10.04,-10.85 14.75,-16.48 4.61,-5.53 9.12,-10.96 13.31,-16.08 4.2,-5.01 7.99,-9.42 11.37,-13l18.02 73.53c-6.15,9.01 -14.03,17.31 -23.56,24.99 -9.52,7.78 -19.76,14.44 -30.93,20.17 -11.06,5.63 -22.53,10.14 -34.51,13.31 -11.88,3.18 -23.35,4.81 -34.31,4.81 -14.44,0 -26.11,-1.74 -35.23,-5.22 -9.11,-3.48 -16.28,-8.19 -21.5,-14.03 -5.22,-5.73 -8.7,-12.29 -10.65,-19.56 -1.84,-7.38 -2.87,-14.85 -2.87,-22.74 0,-4.61 0.61,-10.24 1.74,-16.89 1.02,-6.76 3.18,-14.24 6.25,-22.63 3.07,-8.4 7.47,-17.72 13.11,-27.75 5.53,-10.14 12.8,-21 21.81,-32.57 3.69,-3.58 6.96,-6.86 9.93,-9.73 2.97,-2.97 5.63,-5.53 7.78,-7.88 2.25,-2.26 3.89,-4.41 5.12,-6.45 1.23,-1.95 1.84,-4.1 1.84,-6.25 0,-4.2 -0.82,-7.58 -2.25,-10.24 -1.54,-2.56 -3.69,-3.89 -6.45,-3.89 -3.48,0 -7.88,2.25 -13.21,6.66 -5.43,4.4 -11.37,12.09 -17.72,23.04l-88.17 154.84c-4.61,7.99 -9.42,13.52 -14.34,16.69 -4.81,3.07 -10.55,4.61 -16.9,4.61 -8.6,0 -15.46,-1.84 -20.38,-5.53 -5.02,-3.69 -8.81,-8.7 -11.47,-15.06 -2.56,-6.25 -4.2,-13.62 -4.92,-21.91 -0.72,-8.29 -1.03,-17.1 -1.03,-26.52 0,-11.37 0.41,-26.52 1.13,-45.26 0.82,-18.84 2.05,-39.43 3.69,-61.95 1.54,-22.53 3.69,-46.08 6.45,-70.66 2.67,-24.58 5.94,-48.54 9.73,-71.68 1.33,-8.19 3.17,-18.23 5.43,-29.9 2.15,-11.67 4.92,-24.27 8.19,-37.69 3.28,-13.31 7.17,-27.34 11.67,-41.78 4.51,-14.54 9.73,-28.67 15.67,-42.29 5.84,-13.72 12.49,-26.83 19.97,-39.22 7.37,-12.39 15.67,-23.25 24.88,-32.46 9.22,-9.32 19.25,-16.69 30.31,-22.12 10.96,-5.43 22.94,-8.09 35.94,-8.09 10.24,0 18.64,1.64 25.19,4.92 6.66,3.38 11.88,7.99 15.77,13.82 3.89,5.94 6.66,13.01 8.29,21.2 1.54,8.19 2.35,17.1 2.35,26.62 0,17 -2.15,35.33 -6.45,54.99 -4.3,19.56 -9.73,39.22 -16.39,58.88 -6.55,19.76 -13.72,38.91 -21.61,57.45 -7.78,18.64 -15.26,35.43 -22.43,50.48 -7.27,14.95 -13.62,27.65 -19.05,37.89 -5.53,10.34 -9.22,17.1 -10.96,20.28l-35.74 53.35 7.17 4.51zm58.88 -336.91c-6.45,0 -11.98,2.05 -16.49,6.04 -4.61,3.99 -9.01,9.73 -13.11,17.1 -4.1,7.37 -8.19,16.38 -12.29,26.93 -4.1,10.65 -8.7,22.43 -13.93,35.43 -3.18,11.47 -6.15,23.25 -8.91,35.43 -2.66,12.19 -5.12,24.37 -7.27,36.46 -2.25,12.08 -4.2,24.07 -5.94,35.84 -1.64,11.78 -3.07,22.94 -4.3,33.28 -2.97,24.58 -5.43,48.85 -7.17,72.6 4.4,-13.21 9.11,-27.55 14.34,-43.01 5.22,-15.57 10.34,-30.82 15.46,-45.98 5.12,-15.05 9.93,-29.39 14.44,-42.8 4.5,-13.52 8.19,-24.99 11.26,-34.41 1.33,-4.4 3.38,-9.93 5.94,-16.49 2.66,-6.55 5.43,-13.72 8.4,-21.3 3.07,-7.58 6.04,-15.46 9.01,-23.65 2.97,-8.29 5.73,-16.18 8.3,-23.76 2.46,-7.58 4.5,-14.64 6.14,-21.3 1.53,-6.56 2.35,-12.19 2.35,-16.8 0,-6.45 -2.05,-9.63 -6.24,-9.63z"/>
   <path class="fil0" d="M2538.11 1043.75c-4.61,6.45 -10.75,13.93 -18.54,22.53 -7.68,8.6 -16.28,16.79 -25.91,24.58 -9.63,7.78 -19.87,14.44 -30.93,19.87 -10.96,5.32 -22.02,8.09 -32.98,8.09 -13.21,0 -24.17,-4.3 -32.97,-12.8 -8.81,-8.5 -16.49,-20.79 -22.84,-37.07 -4.81,5.63 -10.76,11.37 -17.72,17.1 -6.96,5.84 -14.64,11.06 -22.94,15.77 -8.3,4.71 -17,8.6 -25.91,11.57 -9.01,2.97 -18.02,4.5 -27.03,4.5 -9.63,0 -18.94,-1.95 -28.06,-5.84 -9.11,-3.89 -17.2,-9.53 -24.17,-16.8 -6.96,-7.37 -12.59,-16.28 -16.79,-26.73 -4.2,-10.55 -6.25,-22.33 -6.25,-35.54 0,-15.05 2.05,-30.41 6.25,-46.18 4.2,-15.88 10.04,-31.34 17.41,-46.39 7.37,-15.16 16.18,-29.39 26.22,-42.81 10.14,-13.31 21.2,-25.09 33.18,-35.02 11.98,-10.04 24.68,-18.03 37.99,-23.86 13.31,-5.94 26.83,-8.91 40.66,-8.91 4.61,0 8.19,0.92 10.75,2.77 2.56,1.74 4.71,3.79 6.45,6.14 1.74,2.25 3.38,4.51 4.92,6.76 1.64,2.15 3.69,3.79 6.04,4.81 2.35,0.92 4.81,1.64 7.37,1.95 2.46,0.31 5.02,0.41 7.68,0.41 2.15,0 4.4,-0.1 6.65,-0.1 2.36,-0.1 4.61,-0.21 6.76,-0.21 3.07,0 5.84,0.31 8.4,0.92 2.66,0.62 4.92,1.85 6.96,3.89 1.95,2.05 3.48,4.81 4.61,8.4 1.12,3.58 1.64,8.5 1.64,14.64 0,9.63 -1.02,20.28 -2.97,32.05 -2.05,11.67 -4.2,23.65 -6.55,35.94 -2.46,12.29 -4.61,24.58 -6.66,36.87 -1.95,12.39 -2.97,23.96 -2.97,35.02 0,9.42 0.82,16.69 2.56,22.02 1.64,5.32 5.32,7.99 10.96,7.99 4.2,0 8.6,-1.12 13.21,-3.18 4.51,-2.15 9.22,-4.81 13.93,-8.29 4.71,-3.38 9.42,-7.17 14.03,-11.47 4.71,-4.3 9.22,-8.81 13.42,-13.42 9.83,-10.75 19.66,-22.94 29.7,-36.56l14.44 66.57zm-256.22 -23.66c0,5.02 0.31,9.83 1.03,14.54 0.72,4.71 1.95,8.91 3.69,12.6 1.84,3.69 4.2,6.65 7.27,9.01 2.97,2.25 6.76,3.38 11.37,3.38 7.37,0 14.13,-3.18 20.07,-9.53 6.04,-6.45 11.26,-14.13 15.67,-23.14 4.4,-9.01 7.88,-18.33 10.65,-27.85 2.66,-9.63 4.4,-17.62 5.22,-24.07l18.33 -88.17c-8.19,0 -16.28,2.05 -24.07,6.14 -7.78,4.1 -15.15,9.63 -22.01,16.69 -6.86,6.96 -13.21,14.95 -19.05,23.96 -5.84,9.01 -10.86,18.43 -15.05,28.36 -4.2,9.93 -7.37,19.87 -9.73,29.8 -2.25,10.03 -3.38,19.46 -3.38,28.26z"/>
   <path class="fil0" d="M1067.81 1313.45c-3.55,3.67 -7.33,7.45 -11.36,11.23 -4.02,3.79 -7.92,7.33 -11.71,10.41 -3.9,3.08 -7.33,5.68 -10.64,7.57 -3.19,2.01 -5.68,2.95 -7.21,2.95 -21.76,0 -38.32,-1.89 -49.91,-5.68 -11.59,-3.78 -17.39,-7.69 -17.39,-11.59 0,-2.6 2.48,-4.61 7.33,-6.27 4.85,-1.66 12.42,-2.49 22.47,-2.49 2.6,0 6.39,-1.89 11.47,-5.68 5.09,-3.78 11.12,-8.63 18.22,-14.31 6.98,-5.8 14.78,-12.06 23.42,-18.81 8.51,-6.62 17.27,-12.89 26.26,-18.69 9.11,-5.8 18.22,-10.52 27.44,-14.31 9.23,-3.9 18.22,-5.8 26.97,-5.8 12.54,0 20.81,0.94 24.95,2.6 4.14,1.77 6.27,4.26 6.27,7.45 0,3.43 -0.47,7.81 -1.42,12.89 -0.95,5.08 -1.3,11 -1.3,17.98 0,0 -0.71,4.14 -2.01,12.42 -1.18,8.4 -2.96,19.16 -4.97,32.64 -2.13,13.37 -4.49,28.51 -7.09,45.53 -2.72,17.03 -5.32,34.18 -7.81,51.68 -2.6,17.39 -4.97,34.42 -7.33,50.86 -2.25,16.56 -4.26,30.87 -5.8,43.17 -0.71,2.72 -1.66,6.98 -2.6,12.42 -1.06,5.56 -2.48,11.71 -4.38,18.22 -1.89,6.62 -4.14,13.37 -6.74,20.11 -2.72,6.86 -5.79,13.13 -9.58,18.69 -3.67,5.68 -8.04,10.29 -13.01,13.96 -4.97,3.55 -10.53,5.32 -16.8,5.32 -7.57,0 -14.78,-0.47 -21.41,-1.42 -6.74,-0.94 -12.54,-2.36 -17.39,-4.26 -4.85,-2.01 -8.63,-4.5 -11.36,-7.69 -2.84,-3.08 -4.26,-6.86 -4.26,-11.24 0,-1.89 0.12,-3.67 0.35,-5.56 0.24,-1.89 1.18,-4.14 2.84,-6.98 3.67,-13.37 7.33,-27.2 10.88,-41.75 3.55,-14.43 7.09,-28.86 10.41,-43.41 3.31,-14.55 6.51,-28.98 9.58,-43.17 2.95,-14.19 5.68,-27.68 8.28,-40.33 6.03,-29.8 11.47,-59.37 16.32,-88.7zm282.67 117.44c4.5,-4.85 7.57,-7.33 9.46,-7.33 1.77,0 2.84,0.71 3.08,2.01 0.24,1.18 0.35,2.96 0.35,5.32 0,7.34 -1.66,15.14 -5.09,23.42 -3.31,8.16 -7.92,15.73 -13.84,22.71 -5.91,6.86 -12.89,12.65 -21.17,17.15 -8.16,4.49 -17.15,6.74 -26.85,6.74 -15.25,0 -28.38,-3.43 -39.62,-10.05 -11.23,-6.74 -20.34,-15.38 -27.55,-25.9 -7.22,-10.41 -12.42,-22.36 -15.97,-35.6 -3.43,-13.37 -5.21,-26.5 -5.21,-39.74 0,-11.95 1.54,-24.25 4.5,-36.66 3.08,-12.54 7.45,-24.6 13.25,-36.43 5.8,-11.71 12.89,-22.82 21.41,-33.23 8.63,-10.41 18.57,-19.52 29.8,-27.2 11.36,-7.8 23.89,-13.84 37.85,-18.33 13.84,-4.49 28.97,-6.86 45.3,-6.86 14.19,0 28.86,2.72 44.23,8.04 15.38,5.32 29.45,13.72 42.1,25.07 12.66,11.47 23.18,26.02 31.34,43.88 8.16,17.74 12.3,39.27 12.3,64.46 0,37.13 -5.32,70.72 -16.09,100.77 -10.76,30.04 -25.43,56.89 -44,80.54 -18.57,23.77 -40.33,44.35 -65.17,62.1 -24.84,17.62 -51.33,32.76 -79.48,45.18 -4.61,2.13 -9.11,3.78 -13.25,5.2 -4.14,1.42 -8.16,2.13 -12.06,2.13 -10.41,0 -18.45,-2.25 -24.25,-6.74 -5.8,-4.5 -8.75,-10.05 -8.75,-16.44 0,-5.32 1.66,-10.88 4.85,-16.56 3.31,-5.68 8.63,-10.88 15.97,-15.73 23.18,-11.83 44.24,-24.84 63.28,-39.38 19.04,-14.43 35.36,-30.87 48.96,-49.44 13.72,-18.69 24.25,-39.5 31.58,-62.57 7.45,-23.18 11.12,-49.08 11.12,-77.94 0,-11.35 -0.83,-22.23 -2.25,-32.64 -1.54,-10.41 -4.14,-19.52 -7.8,-27.56 -3.67,-7.92 -8.63,-14.31 -14.79,-19.04 -6.03,-4.73 -13.72,-7.1 -23.06,-7.1 -9.46,0 -18.1,2.96 -25.9,8.87 -7.92,5.91 -14.66,13.36 -20.34,22.47 -5.56,9.1 -10.05,19.4 -13.13,30.63 -3.07,11.36 -4.73,22.47 -4.73,33.35 0,8.28 1.06,15.61 3.19,22.12 2.01,6.51 4.85,11.95 8.28,16.44 3.43,4.5 7.45,7.92 11.83,10.29 4.38,2.25 8.87,3.43 13.48,3.43 3.9,0 7.92,-1.18 11.95,-3.43 4.02,-2.36 7.69,-5.79 10.88,-10.41zm377.05 27.32c0,-15.02 -2.48,-26.49 -7.57,-34.42 -5.09,-8.04 -11.59,-11.95 -19.4,-11.95 -5.8,0 -10.64,1.42 -14.55,4.26 -4.02,2.96 -7.33,6.5 -10.05,10.76 -2.84,4.26 -5.21,8.99 -7.33,14.07 -2.13,5.09 -4.14,9.7 -6.27,14.07 -2.01,4.26 -4.26,7.81 -6.5,10.64 -2.37,2.96 -5.09,4.38 -8.4,4.38 -1.07,0 -2.49,-2.72 -3.9,-8.16 -1.54,-5.44 -2.25,-12.18 -2.25,-20.22 0,-12.78 2.6,-24.13 7.69,-34.3 5.21,-10.17 12.06,-18.81 20.34,-25.9 8.28,-6.98 17.74,-12.42 28.39,-16.2 10.64,-3.79 21.52,-5.8 32.52,-5.8 10.64,0 20.94,1.89 30.87,5.56 9.93,3.79 18.81,9.46 26.73,17.15 7.81,7.81 14.07,17.62 18.92,29.69 4.73,11.95 7.1,26.26 7.1,42.93 0,18.45 -3.67,36.9 -10.76,55.12 -7.21,18.21 -17.5,34.66 -30.87,49.2 -13.37,14.55 -29.69,26.37 -48.85,35.36 -19.16,8.99 -40.92,13.48 -65.17,13.48 -16.8,0 -33.35,-2.48 -49.56,-7.45 -16.21,-4.97 -30.63,-13.01 -43.29,-24.13 -12.66,-11 -22.94,-25.31 -30.63,-42.93 -7.81,-17.5 -11.59,-38.91 -11.59,-64.11 0,-28.62 5.44,-56.53 16.44,-83.85 11,-27.2 25.9,-52.87 44.83,-76.76 18.93,-23.89 41.28,-45.77 66.94,-65.52 25.55,-19.75 52.99,-36.43 82.08,-50.03 4.61,-2.01 8.99,-3.78 13.01,-4.97 4.02,-1.3 8.16,-1.89 12.3,-1.89 10.17,0 18.1,2.6 23.89,7.69 5.79,5.2 8.63,11.59 8.63,18.92 0,5.32 -1.54,10.76 -4.61,16.32 -3.19,5.56 -8.4,10.88 -15.85,15.97 -20.58,12.18 -40.57,27.08 -60.08,44.47 -19.52,17.5 -36.9,36.54 -51.92,57.36 -15.14,20.82 -27.32,42.82 -36.66,66 -9.23,23.18 -13.84,46.48 -13.84,69.78 0,9.11 0.95,17.62 2.6,25.67 1.77,8.16 4.61,15.26 8.63,21.53 4.14,6.27 9.34,11.12 15.85,14.67 6.39,3.67 14.55,5.44 24.24,5.44 9.94,0 19.04,-2.84 27.56,-8.52 8.4,-5.68 15.61,-12.89 21.41,-21.88 5.91,-8.87 10.53,-18.69 13.96,-29.57 3.31,-10.88 4.97,-21.52 4.97,-31.93z"/>
   <path class="fil1" d="M175.97 18c-125.97,-4.13 -258.59,184.89 -45.31,122.01 269.54,-64.45 305.35,-41.28 280.22,18.87 -22.65,54.23 -88.81,137.07 -183.28,238.13 -166.75,178.38 -325.78,412.45 29.39,184.22 299.25,-192.29 194.87,-9.57 67.09,259.4 -100.96,212.52 142.8,12.03 174.67,112.47 6.06,19.1 -12.37,78.54 -36.55,143.72 -67.67,182.4 -42.05,170.27 138.69,80.99"/>
   <path class="fil0" d="M176.54 0.08c9.9,0.31 17.66,8.59 17.36,18.48 -0.31,9.89 -8.59,17.66 -18.48,17.35 -49.47,-1.62 -100.39,30.55 -125.58,62.2 -7.87,9.88 -12.79,19.13 -13.69,26.38 -0.38,3.09 0.48,5.57 2.94,6.91 11.88,6.46 38.81,5.46 86.53,-8.61 0.66,-0.19 1.32,-0.35 1.98,-0.47 136.41,-32.57 214.52,-42.9 256.01,-37.38 57.78,7.69 61.91,37.64 43.88,80.83 -11.99,28.7 -35.01,64.34 -67.1,105.64 -31.39,40.39 -71.92,86.78 -119.63,137.83 -0.3,0.32 -0.62,0.63 -0.94,0.93 -72.26,77.38 -142.7,164.86 -168.83,218.94 -7.09,14.68 -10.55,25.31 -9.18,30.34 0.13,0.48 2.55,-1.21 8.77,-2.23 29.01,-4.77 84.72,-31.97 176.74,-91.11 129.69,-83.33 192.56,-97.99 214.18,-64.33 25.77,40.11 -26.21,148.41 -93.18,287.93 -7.38,15.38 -15.08,31.42 -27.98,58.58 -24.94,52.49 -28.2,71.91 -20.65,75.5 9.47,4.5 34.02,-1.31 60.3,-7.54 55.57,-13.17 117.15,-27.77 135.93,31.42 4.16,13.13 0.99,36.13 -6.73,64.64 -7.09,26.19 -17.9,57.85 -30.1,90.76 -29.69,80.03 -41.27,116.41 -33.79,119.54 13.11,5.49 61.98,-18.57 147.67,-60.9 8.89,-4.38 19.65,-0.74 24.03,8.15 4.38,8.89 0.73,19.65 -8.15,24.03 -95.05,46.95 -149.36,73.6 -177.33,61.89 -33.6,-14.08 -24.14,-62.85 13.84,-165.21 11.97,-32.27 22.47,-62.93 29.12,-87.52 6.03,-22.28 9.04,-38.56 7.15,-44.54 -8.67,-27.32 -53.18,-16.77 -93.35,-7.25 -32.59,7.72 -63.02,14.94 -83.91,5.01 -27.33,-12.99 -33.02,-46.41 3.5,-123.28 6.16,-12.98 17.28,-36.13 28.12,-58.72 62.08,-129.34 110.28,-229.74 95.28,-253.08 -9.03,-14.05 -56.54,5.73 -164.58,75.15 -96.41,61.95 -156.77,90.78 -190.37,96.31 -28.37,4.67 -43.96,-4.33 -49.24,-23.77 -3.78,-13.93 0.74,-32.95 11.57,-55.36 27.64,-57.22 100.5,-147.99 174.89,-227.67 0.29,-0.36 0.6,-0.72 0.92,-1.06 46.75,-50.02 86.55,-95.59 117.52,-135.44 30.26,-38.94 51.67,-71.84 62.33,-97.35 7.08,-16.96 5.86,-28.67 -15.35,-31.5 -37.32,-4.97 -111.32,5.21 -243.16,36.69l-0.08 0.03c-57.91,17.08 -94.2,16.32 -113.8,5.66 -17.36,-9.45 -23.75,-24.65 -21.49,-42.74 1.74,-13.94 9.38,-29.41 21.28,-44.37 30.68,-38.55 93.32,-77.7 154.82,-75.69z"/>
   <polygon class="fil2" points="10.03,280.56 96.63,238.77 240.77,537.42 154.17,579.22 "/>
   <polygon class="fil2" points="154.17,579.22 197.47,558.32 240.77,537.43 283.42,681.1 261.77,691.55 240.12,701.99 "/>
   <path class="fil2" d="M240.12 701.99l43.3 -20.9 224.69 465.56 4.78 24.25c8.43,42.76 17.51,46.99 45.39,79.27 39.56,45.81 44.96,77.5 45.22,143.24 -84.55,-76.94 -90.23,-125.46 -138.69,-225.86l-224.69 -465.56z"/>
   <polygon class="fil2" points="16.38,228.98 31.92,221.48 36.76,219.15 52.3,211.65 94.21,239.93 55.75,258.49 50.91,260.83 12.45,279.39 "/>
   <g>
    <path class="fil3" d="M8.08 276.52l86.6 -41.79 4.04 -1.95 1.95 4.04 144.14 298.65 1.95 4.04 -4.04 1.95 -86.6 41.8 -4.04 1.95 -1.95 -4.04 -144.14 -298.66 -1.95 -4.04 4.04 -1.95zm86.46 -31.76l-78.52 37.89 140.24 290.58 78.51 -37.9 -140.24 -290.57z"/>
    <path class="fil3" d="M152.22 575.18l43.3 -20.9 43.3 -20.9 4.75 -2.29 1.51 5.07 42.64 143.68 1.08 3.65 -3.44 1.66 -21.65 10.43 -21.64 10.46 -3.43 1.66 -2.19 -3.13 -85.94 -122.77 -3.02 -4.32 4.74 -2.29zm47.19 -12.82l-38.55 18.61 80.73 115.32 18.21 -8.8 18.21 -8.77 -40.06 -134.97 -38.55 18.61z"/>
    <path class="fil3" d="M238.17 697.95l43.29 -20.89 4.04 -1.95 1.95 4.04 224.7 465.55 0.26 0.54 0.11 0.55 4.78 24.24c6.92,35.11 14.3,43.38 32.88,64.19l0.02 0c3.29,3.69 6.93,7.76 11.46,13.02 20.23,23.42 31.75,43.31 38.27,65.83 6.47,22.35 7.92,47.06 8.05,80.33l0.04 10.2 -7.54 -6.86c-65.58,-59.67 -84.18,-102.34 -111.37,-164.72 -8.15,-18.69 -17.08,-39.18 -28.34,-62.51l-224.69 -465.57 -1.95 -4.04 4.04 -1.95zm43.15 -10.86l-35.21 16.99 222.74 461.53c11.29,23.38 20.28,44.01 28.48,62.83 25.64,58.82 43.52,99.82 101.6,154.62 -0.4,-27.33 -2.1,-48.46 -7.61,-67.49 -6.14,-21.21 -17.11,-40.07 -36.44,-62.45 -3.9,-4.52 -7.84,-8.94 -11.39,-12.91l0.01 -0.01c-19.77,-22.16 -27.63,-30.97 -35.02,-68.44l-4.67 -23.69 -222.49 -460.97z"/>
    <path class="fil3" d="M14.43 224.93l15.55 -7.49 4.82 -2.34 15.54 -7.5 2.33 -1.12 2.13 1.44 41.92 28.3 6.47 4.37 -7.03 3.4 -38.47 18.56 -4.83 2.33 -38.46 18.56 -7.03 3.39 0.61 -7.77 3.92 -50.42 0.2 -2.59 2.33 -1.12zm19.45 0.59l-13.22 6.37 -3.12 40.07 31.42 -15.16 4.83 -2.33 31.43 -15.17 -33.32 -22.49 -13.21 6.38 -4.83 2.34z"/>
   </g>
  </g>
 </g>
</svg>
