<?xml version="1.0" standalone="no"?>
<!DOCTYPE svg PUBLIC "-//W3C//DTD SVG 20010904//EN"
 "http://www.w3.org/TR/2001/REC-SVG-20010904/DTD/svg10.dtd">
<svg version="1.0" xmlns="http://www.w3.org/2000/svg"
 width="1290.000000pt" height="1290.000000pt" viewBox="0 0 1290.000000 1290.000000"
 preserveAspectRatio="xMidYMid meet">
<metadata>
Created by potrace 1.14, written by Peter Selinger 2001-2017
</metadata>
<g transform="translate(0.000000,1290.000000) scale(0.100000,-0.100000)"
fill="#000000" stroke="none">
<path d="M3661 9944 c-313 -68 -649 -316 -745 -549 -46 -109 -27 -217 47 -280
59 -50 130 -70 252 -68 114 1 174 10 370 58 333 82 831 180 1042 205 125 14
338 15 390 1 96 -26 104 -92 29 -246 -121 -247 -393 -598 -861 -1114 -71 -79
-158 -176 -193 -215 -35 -39 -67 -72 -71 -74 -7 -2 -97 180 -405 821 -54 113
-100 196 -106 192 -5 -3 -58 26 -116 65 -59 40 -113 74 -120 77 -7 3 -63 -19
-124 -48 -110 -52 -110 -52 -110 -88 -1 -85 -19 -244 -28 -250 -9 -6 48 -129
418 -893 l178 -367 -96 -128 c-376 -504 -470 -792 -289 -884 35 -18 53 -21
126 -17 131 7 296 70 554 211 78 42 132 66 138 60 5 -5 58 -78 119 -163 75
-105 132 -199 177 -290 203 -416 303 -624 303 -632 0 -5 -7 -8 -17 -6 -10 2
-19 -6 -24 -24 -9 -34 1 -41 36 -28 14 5 28 10 30 10 2 0 -10 -30 -25 -67 -74
-177 -100 -352 -65 -436 37 -88 145 -136 275 -123 36 4 76 8 89 9 23 2 38 -24
197 -353 95 -195 173 -358 173 -362 1 -5 -6 -8 -14 -8 -11 0 -15 -8 -12 -27 4
-28 25 -33 38 -11 4 6 23 -25 44 -68 l37 -79 -52 -170 c-107 -356 -104 -495
15 -562 26 -15 57 -23 87 -23 52 0 156 22 211 45 20 8 43 15 50 15 8 0 29 -32
46 -73 78 -175 203 -382 305 -507 97 -117 278 -298 283 -283 8 23 -17 346 -32
418 -34 160 -110 297 -259 467 -42 47 -76 89 -76 92 0 7 75 46 88 46 5 0 12
-22 16 -48 9 -69 50 -145 103 -192 82 -72 446 -241 558 -258 68 -11 160 0 209
25 132 67 210 224 178 362 -13 54 1 79 62 115 102 59 157 142 192 284 14 54
26 76 64 117 75 81 135 200 160 318 8 41 20 62 49 90 57 54 91 128 91 198 0
40 5 61 14 66 8 4 35 27 60 51 43 40 71 57 47 29 -11 -14 -6 -27 11 -27 4 0 6
16 3 36 -2 20 2 48 9 63 7 14 19 49 26 76 8 28 28 68 46 90 43 53 81 130 96
196 9 39 23 64 54 96 76 78 110 186 93 295 -10 62 8 99 55 116 82 30 157 131
177 238 9 46 20 68 54 107 51 55 90 133 107 209 8 36 24 67 49 96 43 49 73
109 90 179 8 29 27 65 50 91 21 24 48 65 59 90 12 26 26 56 33 67 67 121 307
612 318 650 7 29 30 71 54 100 34 42 59 93 81 163 2 6 11 12 21 12 55 0 155
82 199 164 26 47 29 60 32 186 3 95 0 154 -11 198 l-14 63 55 36 c100 66 178
188 209 324 40 177 -42 397 -190 508 -91 69 -159 94 -264 99 l-91 4 -41 44
c-23 23 -66 55 -97 70 -48 24 -63 26 -132 22 -51 -3 -91 -12 -117 -26 -53 -26
-121 -101 -147 -159 -34 -76 -35 -231 -3 -388 6 -28 3 -32 -37 -51 -132 -65
-231 -215 -253 -384 -6 -46 -14 -62 -52 -103 -24 -26 -56 -73 -71 -105 -24
-51 -26 -68 -26 -172 1 -250 7 -310 37 -373 23 -47 38 -63 80 -87 29 -17 67
-33 85 -36 18 -3 34 -9 36 -13 2 -3 -14 -42 -37 -86 -42 -80 -42 -80 -87 -85
-25 -3 -66 -17 -90 -31 -43 -24 -48 -25 -105 -13 -97 20 -188 -7 -259 -78 -24
-24 -64 -62 -89 -86 -53 -49 -84 -120 -100 -229 -6 -40 -13 -73 -16 -73 -4 0
-29 22 -57 48 -85 81 -247 152 -345 152 -20 0 -66 -9 -102 -20 -199 -61 -302
-321 -215 -538 43 -104 88 -170 188 -274 l95 -98 -15 -34 c-19 -44 -64 -66
-138 -66 -68 -1 -135 -24 -196 -67 -47 -33 -118 -122 -131 -163 -4 -14 -14
-42 -23 -62 -14 -30 -21 -36 -37 -30 -11 4 -69 7 -128 7 -106 0 -108 0 -102
22 6 24 -21 46 -62 50 -34 3 -47 -21 -40 -79 6 -48 5 -53 -33 -96 -85 -96
-124 -235 -102 -364 26 -150 104 -270 274 -425 l47 -42 -16 -40 -15 -39 -78 5
c-57 4 -90 1 -126 -11 -42 -14 -49 -14 -64 -1 -36 32 -77 6 -67 -44 5 -22 0
-34 -22 -55 -40 -38 -81 -127 -94 -204 -17 -106 8 -194 85 -293 l28 -37 -20
-44 c-10 -24 -22 -63 -26 -87 -8 -51 -9 -51 -194 -142 -162 -79 -147 -83 -175
46 -33 157 -42 192 -60 224 -16 33 -16 35 0 47 16 12 16 13 -7 19 -19 5 -37
31 -78 112 l-54 106 71 211 c69 205 71 210 83 179 10 -29 14 -31 27 -18 16 17
48 21 38 5 -10 -16 1 -11 16 7 8 10 9 14 2 10 -6 -4 -14 -3 -17 2 -3 5 1 11 9
15 8 3 17 1 20 -4 4 -6 14 -9 23 -9 15 1 15 2 -1 6 -22 6 -17 28 6 28 8 0 19
4 23 8 4 4 17 7 28 8 18 1 18 2 -4 9 -35 11 -62 12 -55 1 3 -5 2 -12 -3 -15
-10 -6 -46 34 -37 42 3 3 35 1 72 -5 74 -13 108 -1 119 42 9 34 -65 175 -92
175 -22 0 -47 48 -48 93 -1 39 -3 41 -31 42 -26 0 -30 4 -30 26 1 21 -3 25
-22 21 -29 -5 -30 -22 -2 -22 11 0 17 -5 14 -10 -4 -6 -11 -8 -16 -5 -5 4 -9
-1 -9 -9 0 -9 6 -16 13 -16 8 0 22 -9 32 -20 10 -11 22 -17 26 -14 5 3 9 -4 9
-15 0 -12 -1 -21 -3 -21 -2 0 -22 18 -46 40 -23 22 -49 40 -57 40 -7 0 -20 13
-28 29 -34 65 -122 116 -229 133 -71 11 -134 5 -333 -28 -29 -6 -32 -3 -57 54
-15 32 -72 152 -127 265 -55 114 -100 213 -100 222 0 8 33 82 74 163 90 180
193 400 296 629 57 129 80 169 88 161 16 -16 28 18 13 36 -9 11 -4 33 22 97
19 46 47 123 63 171 15 48 30 86 32 84 5 -6 52 36 52 46 0 13 -28 9 -33 -4 -2
-7 -7 -10 -11 -7 -3 3 0 35 9 70 18 79 19 191 1 242 -14 37 -12 71 6 93 14 19
-2 44 -29 44 -16 0 -27 -7 -30 -20 -5 -19 -6 -19 -37 -2 -24 13 -54 17 -138
16 -59 -1 -107 2 -106 5 6 32 -55 91 -95 91 -39 0 -96 -58 -95 -97 0 -16 0
-36 -1 -46 -1 -23 -61 -58 -85 -51 -12 4 -17 2 -14 -6 5 -15 -223 -135 -231
-122 -10 15 -51 -5 -51 -25 -1 -25 -146 -112 -180 -108 -14 2 -28 4 -32 4 -5
1 -8 8 -8 16 0 10 -11 15 -35 15 -29 0 -36 4 -41 28 -4 15 -30 72 -57 127
-150 302 -187 388 -175 404 13 17 121 136 303 337 291 320 473 535 617 729
368 497 446 782 237 877 -26 12 -45 26 -43 30 10 16 -8 48 -27 48 -13 0 -19
-7 -19 -21 0 -19 -3 -20 -57 -12 -90 13 -336 7 -468 -11 -263 -36 -630 -110
-1010 -205 -266 -66 -400 -76 -462 -36 -22 15 -25 22 -20 57 17 128 252 348
464 433 92 38 171 56 263 62 48 3 95 12 108 20 53 33 48 109 -9 138 -35 19
-141 18 -228 -1z m5297 -1162 c12 -12 23 -48 31 -98 30 -184 118 -331 236
-393 50 -26 85 -27 118 -1 33 26 41 62 22 107 -20 48 -41 71 -89 95 -80 41
-119 -5 -67 -77 17 -24 31 -46 31 -49 0 -13 -36 -5 -67 14 -41 24 -63 67 -63
120 0 119 105 190 211 143 102 -46 159 -125 167 -232 4 -59 1 -76 -23 -130
-129 -287 -494 -132 -579 246 -9 40 -16 107 -16 149 0 66 3 81 22 101 26 28
42 29 66 5z m2 -595 c86 -41 185 -139 227 -227 41 -87 57 -157 57 -266 1 -101
-14 -134 -61 -134 -30 0 -40 23 -52 131 -5 47 -19 111 -31 142 -38 100 -156
206 -261 235 -55 15 -88 5 -106 -33 -15 -31 -14 -36 7 -80 55 -113 215 -144
195 -38 -8 43 5 42 44 -2 25 -29 31 -45 31 -82 0 -39 -5 -50 -39 -84 -36 -37
-42 -39 -99 -39 -72 0 -119 18 -173 67 -116 105 -131 261 -36 370 36 41 78 65
132 73 57 9 91 3 165 -33z m-254 -568 c217 -154 249 -180 270 -221 19 -37 18
-55 -7 -89 -40 -56 -51 -55 -130 13 -87 76 -303 247 -306 244 -2 -1 2 -18 7
-36 8 -29 6 -40 -15 -77 -14 -23 -35 -48 -47 -54 -20 -11 -21 -10 -14 30 4 26
0 77 -10 129 -9 47 -13 101 -10 120 6 41 31 82 50 82 7 0 103 -64 212 -141z
m131 -413 c53 -46 44 -79 -111 -382 -76 -148 -149 -280 -162 -295 -13 -14 -24
-35 -24 -48 0 -30 -25 -77 -52 -95 -12 -9 -39 -16 -60 -16 -21 0 -38 -2 -38
-4 0 -2 5 -27 10 -57 16 -83 -1 -149 -51 -193 -21 -20 -47 -36 -58 -36 -16 0
-19 -10 -23 -79 -5 -94 -36 -164 -88 -198 -41 -28 -62 -29 -118 -2 -51 25
-120 112 -148 186 -25 68 -54 86 -54 34 0 -20 37 -85 120 -211 66 -101 120
-191 120 -200 0 -10 -10 -30 -21 -45 -18 -22 -28 -26 -58 -23 -20 3 -43 8 -52
12 -13 6 -18 -1 -23 -31 -18 -99 -77 -163 -150 -163 l-37 0 19 -27 c39 -56 82
-153 82 -187 0 -18 -9 -44 -19 -57 -16 -20 -28 -24 -68 -23 l-48 2 0 -102 c-1
-84 -4 -108 -23 -143 -26 -49 -56 -73 -94 -73 l-28 0 0 -80 c0 -134 -35 -180
-137 -180 -86 0 -170 55 -251 164 -19 24 -22 26 -22 9 0 -34 107 -235 170
-318 33 -44 60 -90 60 -102 0 -33 -39 -55 -77 -44 l-30 9 -7 -83 c-18 -216
-103 -375 -201 -375 l-30 0 -1 -98 c0 -160 -49 -233 -145 -217 -38 7 -39 6
-39 -21 0 -42 -39 -114 -74 -135 -17 -10 -48 -19 -68 -19 -21 0 -38 -3 -38 -6
0 -3 14 -25 31 -50 72 -105 87 -177 44 -219 -44 -45 -97 -31 -360 95 -170 82
-181 92 -164 152 13 46 35 78 53 78 7 0 81 -41 166 -91 85 -50 164 -96 175
-102 24 -12 37 -30 -137 177 -145 171 -153 192 -99 247 43 42 68 30 148 -74
48 -62 90 -90 130 -85 35 4 64 46 70 100 l5 43 -111 98 c-66 58 -113 108 -117
123 -4 14 1 44 11 69 26 69 44 63 181 -60 125 -112 207 -163 231 -144 18 16
17 89 -3 110 -9 10 -25 53 -36 96 -10 43 -51 147 -90 231 -59 128 -70 159 -65
189 11 67 75 106 108 67 8 -9 25 -39 39 -68 l25 -51 87 -22 c48 -12 101 -29
117 -38 l31 -16 0 83 0 83 -88 49 c-497 281 -708 547 -566 716 88 103 303 -62
550 -423 33 -48 62 -86 66 -87 4 0 -8 35 -26 78 -64 150 -72 253 -20 272 37
15 88 -16 189 -114 48 -46 105 -92 127 -102 39 -18 41 -18 54 1 31 42 4 160
-47 202 -18 15 -71 61 -116 101 -82 72 -83 74 -83 121 0 52 21 91 51 91 10 0
66 -42 123 -94 125 -112 187 -157 224 -159 26 -2 27 -1 30 58 2 34 -3 78 -10
100 -12 36 -20 42 -104 79 -118 53 -200 101 -207 121 -9 21 24 105 46 119 20
13 20 13 230 -112 76 -45 135 -76 131 -69 -4 6 -68 83 -141 169 -103 121 -133
163 -133 185 0 51 51 101 90 88 10 -3 44 -38 75 -76 88 -108 140 -132 185 -84
17 18 25 40 28 78 4 50 3 53 -24 66 -57 26 -341 221 -410 283 -186 165 -256
302 -210 412 42 100 144 84 295 -47 117 -102 285 -310 337 -420 10 -20 22 -37
27 -37 5 0 7 6 4 13 -3 6 -27 58 -52 115 -53 117 -62 160 -43 217 24 75 117
91 176 31 14 -13 50 -73 81 -132 60 -116 94 -150 128 -128 46 29 15 135 -62
214 -29 30 -67 78 -83 105 -81 135 -82 312 -2 328 22 5 35 16 47 41 30 63 45
59 190 -46 151 -111 193 -123 193 -53 0 19 -9 61 -21 93 -36 99 -39 92 29 73
34 -9 64 -20 68 -24 4 -4 65 107 136 245 71 139 136 263 144 276 19 28 36 28
71 -2z m-3560 -122 c11 -17 16 -44 15 -81 -1 -58 -44 -230 -68 -273 -12 -23
-13 -21 -14 35 -1 65 -19 102 -45 92 -22 -9 -38 -57 -30 -92 3 -16 7 -45 9
-64 1 -21 11 -41 25 -52 19 -16 21 -22 11 -34 -7 -8 -19 -15 -26 -15 -10 0
-13 -13 -12 -42 1 -34 -16 -80 -75 -213 -120 -265 -321 -694 -327 -694 -3 -1
-24 38 -47 87 -23 48 -82 171 -132 273 -122 254 -166 403 -136 471 8 20 -22
38 -34 20 -4 -6 -17 27 -31 74 -15 56 -20 88 -13 95 6 6 16 -4 29 -31 10 -22
23 -38 29 -37 10 4 27 -9 84 -60 27 -24 31 -33 19 -33 -10 0 -17 5 -15 12 1 6
-6 14 -15 16 -26 5 -12 -23 18 -36 13 -7 24 -8 24 -4 0 4 14 15 31 25 30 17
31 17 36 -3 4 -14 14 -20 35 -20 21 0 31 -6 35 -20 3 -11 11 -20 19 -20 7 0
19 -8 26 -18 19 -27 41 -31 61 -12 17 17 17 17 -8 13 -20 -4 -25 -1 -25 14 0
10 -5 24 -10 29 -7 7 -4 18 10 34 22 25 24 38 11 59 -13 20 -45 5 -39 -17 7
-24 -30 -24 -38 0 -5 17 -33 31 -53 26 -6 -2 -17 8 -24 22 -7 13 -28 35 -47
48 -22 14 -35 33 -38 50 -2 15 -9 30 -15 34 -15 10 -19 6 148 107 174 104 215
125 201 102 -3 -5 8 -11 24 -13 30 -4 42 13 20 27 -5 3 -10 10 -10 14 0 13 89
51 106 44 10 -4 25 4 40 21 28 29 87 36 101 12 7 -13 36 -20 73 -17 21 1 25
51 5 51 -8 0 -15 5 -15 10 0 6 18 10 40 10 32 0 43 -5 57 -26z m-1672 -115 c5
-14 0 -27 -14 -40 -29 -27 -27 -65 5 -85 19 -13 28 -14 37 -5 19 19 27 13 53
-41 13 -29 53 -93 88 -143 l63 -89 -126 -70 c-208 -114 -392 -186 -478 -186
-23 0 -33 5 -33 15 0 31 42 140 82 214 72 132 291 451 309 451 4 0 11 -9 14
-21z m3528 -1612 c54 -44 50 -134 -9 -186 -72 -62 -179 31 -144 124 30 79 98
107 153 62z m-2408 -406 c31 -63 53 -116 50 -120 -12 -12 -122 -6 -139 8 -22
19 -20 71 5 159 12 40 24 71 25 69 2 -2 29 -54 59 -116z m650 -213 c13 -30 42
-34 68 -10 27 25 53 17 90 -28 46 -54 37 -138 -40 -397 -20 -68 -39 -123 -43
-123 -4 0 -24 37 -44 83 -21 45 -81 168 -134 274 -53 105 -93 195 -88 200 4 4
33 11 64 14 108 12 117 11 127 -13z m435 -72 c0 -8 -9 -14 -19 -13 -15 1 -17
4 -9 14 14 17 28 16 28 -1z m-12 -31 c-2 -2 -12 -5 -23 -7 -11 -1 -23 -7 -27
-13 -4 -5 -8 -1 -8 11 0 17 5 20 30 16 17 -2 30 -6 28 -7z m12 -48 c0 -5 -4
-5 -10 -2 -5 3 -10 14 -10 23 0 15 2 15 10 2 5 -8 10 -19 10 -23z m-55 -3 c6
-9 24 -16 38 -16 28 0 35 -12 16 -24 -6 -3 -14 -3 -18 2 -10 14 -43 17 -51 4
-4 -6 -7 3 -8 19 -1 35 5 39 23 15z m716 -553 c70 -70 2 -216 -91 -196 -39 8
-80 58 -80 96 0 36 33 104 57 118 35 20 83 13 114 -18z m-988 -649 c37 -81 67
-152 67 -158 0 -15 -126 -54 -173 -54 -47 0 -59 25 -46 96 10 59 72 264 79
264 3 -1 35 -67 73 -148z"/>
<path d="M8048 6518 c-3 -50 5 -85 29 -129 69 -128 223 -204 223 -110 0 44
-37 88 -148 179 -91 75 -102 81 -104 60z"/>
<path d="M7285 6249 c-19 -58 185 -254 400 -385 l30 -18 -31 35 c-108 120
-349 366 -369 376 -21 12 -24 11 -30 -8z"/>
<path d="M6580 4935 c0 -15 43 -87 84 -140 64 -81 223 -212 355 -290 22 -13
-229 282 -285 337 -74 70 -154 118 -154 93z"/>
<path d="M6960 4028 c0 -2 13 -43 28 -93 17 -54 34 -91 43 -93 22 -4 79 36 89
63 16 42 -4 73 -62 100 -44 20 -98 33 -98 23z"/>
<path d="M5230 7000 c34 -27 63 -26 31 0 -13 11 -31 20 -40 20 -12 0 -10 -5 9
-20z"/>
<path d="M5141 6976 c-7 -8 -11 -27 -9 -43 3 -24 8 -28 33 -28 26 0 30 3 27
25 -2 14 -11 33 -21 43 -16 16 -19 16 -30 3z"/>
<path d="M4788 6878 c-22 -18 -13 -85 14 -94 25 -8 58 22 58 52 0 13 -10 30
-22 38 -27 19 -30 19 -50 4z"/>
<path d="M4947 6844 c-11 -14 -17 -28 -14 -30 6 -6 47 36 47 48 0 15 -15 7
-33 -18z"/>
<path d="M4912 6698 c-7 -7 -12 -20 -12 -29 0 -10 -4 -21 -10 -24 -15 -9 -12
-42 5 -48 8 -4 17 -2 20 3 4 6 17 10 30 10 20 0 25 7 31 36 5 28 3 38 -12 49
-23 18 -37 18 -52 3z"/>
<path d="M5000 6605 c0 -14 5 -25 10 -25 6 0 10 -16 10 -35 0 -33 1 -34 33
-29 52 9 59 13 53 29 -3 8 -1 15 5 15 6 0 9 10 7 23 -2 17 -9 21 -29 19 -15
-1 -32 4 -39 13 -20 25 -50 19 -50 -10z"/>
<path d="M4763 6574 c-8 -21 13 -42 28 -27 13 13 5 43 -11 43 -6 0 -13 -7 -17
-16z"/>
<path d="M4840 6480 c0 -5 5 -10 10 -10 6 0 10 5 10 10 0 6 -4 10 -10 10 -5 0
-10 -4 -10 -10z"/>
<path d="M4514 6445 c-10 -25 7 -40 23 -20 7 11 13 22 13 27 0 14 -30 9 -36
-7z"/>
<path d="M4643 6443 c-29 -5 -29 -13 -1 -48 21 -27 21 -27 1 -17 -11 7 -24 23
-27 37 -8 33 -46 35 -47 3 -1 -40 -7 -61 -21 -70 -10 -7 -9 -8 4 -4 10 3 20 0
24 -6 4 -7 10 -6 16 3 7 10 11 11 14 3 3 -7 14 -9 26 -7 11 4 24 0 29 -8 7
-11 9 -10 9 5 0 12 5 16 15 13 8 -4 17 -2 20 3 4 6 -3 10 -14 10 -12 0 -21 5
-21 11 0 5 6 7 13 3 6 -4 4 2 -7 14 -11 13 -16 30 -13 42 3 11 4 19 4 19 -1
-1 -12 -4 -24 -6z"/>
<path d="M4560 6278 c0 -22 17 -41 29 -34 19 12 13 46 -9 46 -11 0 -20 -6 -20
-12z"/>
<path d="M4620 6224 c0 -4 10 -24 22 -45 22 -40 38 -50 38 -24 0 7 7 18 16 23
14 8 12 12 -11 30 -26 21 -65 30 -65 16z m66 -26 c4 -7 3 -8 -4 -4 -7 4 -12 2
-12 -5 0 -7 -3 -10 -6 -6 -6 5 3 27 11 27 2 0 7 -5 11 -12z"/>
<path d="M4697 6154 c9 -4 9 -13 2 -31 -5 -14 -7 -28 -5 -31 3 -2 8 7 12 22 3
14 13 26 21 26 8 0 11 5 8 10 -3 6 -16 10 -28 9 -12 0 -17 -3 -10 -5z"/>
<path d="M4770 5964 c0 -8 5 -12 10 -9 6 3 10 10 10 16 0 5 -4 9 -10 9 -5 0
-10 -7 -10 -16z"/>
<path d="M5427 4664 c-4 -4 -7 -18 -7 -31 0 -28 23 -27 28 1 4 20 -11 40 -21
30z"/>
<path d="M5367 4450 c-5 -18 1 -60 8 -60 2 0 10 3 19 6 21 8 20 26 -3 53 -18
21 -19 21 -24 1z"/>
<path d="M4087 9054 c-8 -9 11 -44 24 -44 6 0 9 10 7 22 -3 22 -19 34 -31 22z"/>
<path d="M5364 8725 c-3 -8 -3 -19 1 -25 10 -16 35 7 28 26 -7 18 -22 18 -29
-1z"/>
<path d="M5691 8677 c-22 -27 -18 -82 6 -92 41 -15 72 74 34 95 -25 13 -26 13
-40 -3z"/>
<path d="M5390 8490 c0 -5 5 -10 11 -10 5 0 7 5 4 10 -3 6 -8 10 -11 10 -2 0
-4 -4 -4 -10z"/>
<path d="M4747 8211 c-6 -26 6 -43 26 -35 20 7 22 25 5 42 -17 17 -25 15 -31
-7z"/>
<path d="M5081 8144 c-11 -15 -21 -39 -21 -53 0 -19 -10 -34 -30 -49 -25 -19
-30 -29 -28 -62 1 -36 4 -40 28 -40 14 0 31 5 38 12 8 8 18 9 36 0 53 -24 91
12 94 88 4 98 -70 164 -117 104z"/>
<path d="M5990 8030 c0 -5 7 -10 15 -10 8 0 15 5 15 10 0 6 -7 10 -15 10 -8 0
-15 -4 -15 -10z"/>
<path d="M5369 7978 c-23 -26 -29 -42 -29 -76 0 -67 14 -85 58 -77 56 10 67
23 37 47 -29 23 -32 54 -8 80 15 17 15 18 -3 19 -10 0 -14 3 -7 5 13 6 6 34
-9 34 -5 0 -22 -15 -39 -32z"/>
<path d="M6090 7994 c-9 -10 -10 -18 -2 -26 12 -12 32 -2 32 17 0 21 -16 26
-30 9z"/>
<path d="M5460 7955 c-19 -58 9 -105 30 -50 10 27 3 85 -10 85 -5 0 -14 -16
-20 -35z"/>
<path d="M5926 7761 c-4 -7 -5 -15 -2 -18 9 -9 19 4 14 18 -4 11 -6 11 -12 0z"/>
<path d="M5413 7678 c2 -31 -2 -49 -15 -63 -12 -13 -17 -28 -13 -42 3 -13 -1
-33 -10 -47 -12 -18 -14 -37 -9 -80 5 -37 10 -53 15 -44 7 11 9 11 9 0 0 -7 5
-10 10 -7 6 3 10 1 10 -5 0 -7 5 -7 14 2 16 17 10 81 -8 72 -6 -3 -2 3 10 13
11 10 19 24 17 30 -2 6 5 14 17 18 12 4 17 11 13 18 -4 6 -6 26 -4 43 4 47
-17 112 -39 124 -18 10 -20 7 -17 -32z"/>
<path d="M6307 7694 c-8 -8 1 -24 14 -24 5 0 9 7 9 15 0 15 -12 20 -23 9z"/>
<path d="M6292 7569 c2 -6 8 -10 13 -10 5 0 11 4 13 10 2 6 -4 11 -13 11 -9 0
-15 -5 -13 -11z"/>
<path d="M4564 7473 c-6 -10 -8 -25 -5 -34 5 -13 11 -15 31 -7 15 6 20 12 13
15 -7 3 -13 13 -13 24 0 24 -12 24 -26 2z"/>
<path d="M6726 7445 c-9 -26 -7 -32 5 -12 6 10 9 21 6 23 -2 3 -7 -2 -11 -11z"/>
<path d="M5242 7378 c-17 -17 -15 -48 3 -48 8 0 15 5 15 11 0 5 5 7 10 4 6 -4
10 5 10 19 0 28 -18 34 -38 14z"/>
<path d="M4565 7370 c4 -6 11 -8 16 -5 14 9 11 15 -7 15 -8 0 -12 -5 -9 -10z"/>
<path d="M4640 7371 c0 -11 62 -41 72 -35 14 9 9 32 -8 38 -23 9 -64 7 -64 -3z"/>
<path d="M5310 7365 c-10 -12 -10 -18 0 -30 15 -18 30 -11 30 15 0 26 -15 33
-30 15z"/>
<path d="M4768 7278 c9 -9 15 -9 24 0 9 9 7 12 -12 12 -19 0 -21 -3 -12 -12z"/>
<path d="M4837 7231 c-3 -12 -1 -21 3 -21 15 0 23 21 12 32 -6 6 -11 2 -15
-11z"/>
<path d="M5535 7200 c-7 -23 -20 -26 -29 -7 -4 6 -4 2 -2 -10 2 -13 0 -23 -5
-23 -10 0 -1 -14 38 -56 24 -26 58 -32 66 -11 2 6 3 23 1 37 -1 14 -3 38 -3
53 -1 24 -4 27 -21 22 -11 -4 -20 -2 -20 4 0 19 -18 12 -25 -9z"/>
<path d="M5470 7200 c0 -5 5 -10 10 -10 6 0 10 5 10 10 0 6 -4 10 -10 10 -5 0
-10 -4 -10 -10z"/>
<path d="M5690 7180 c0 -5 5 -10 10 -10 6 0 10 5 10 10 0 6 -4 10 -10 10 -5 0
-10 -4 -10 -10z"/>
<path d="M4321 7101 c-20 -13 -5 -63 17 -59 9 2 18 13 20 24 4 25 -19 46 -37
35z"/>
<path d="M4657 7104 c-4 -4 -7 -14 -7 -23 0 -11 3 -12 11 -4 6 6 10 16 7 23
-2 6 -7 8 -11 4z"/>
<path d="M5760 7100 c0 -5 5 -10 11 -10 5 0 7 5 4 10 -3 6 -8 10 -11 10 -2 0
-4 -4 -4 -10z"/>
<path d="M2740 6985 c0 -8 5 -15 10 -15 6 0 10 7 10 15 0 8 -4 15 -10 15 -5 0
-10 -7 -10 -15z"/>
<path d="M5635 6950 c3 -5 8 -10 11 -10 2 0 4 5 4 10 0 6 -5 10 -11 10 -5 0
-7 -4 -4 -10z"/>
<path d="M6372 6921 c2 -7 7 -12 11 -12 12 1 9 15 -3 20 -7 2 -11 -2 -8 -8z"/>
<path d="M5594 6875 c-4 -8 -3 -26 0 -39 12 -46 59 -39 59 9 0 40 -47 63 -59
30z"/>
<path d="M6098 6855 c-12 -28 4 -80 28 -89 28 -11 58 14 35 28 -5 3 -9 22 -9
41 0 19 4 32 9 29 5 -3 9 0 9 5 0 6 -14 11 -30 11 -23 0 -33 -6 -42 -25z"/>
<path d="M5437 6683 c-5 -28 6 -43 31 -43 21 0 25 30 7 50 -24 27 -32 25 -38
-7z"/>
<path d="M5480 6600 c-13 -8 -12 -10 3 -10 9 0 17 5 17 10 0 12 -1 12 -20 0z"/>
<path d="M3896 6204 c-10 -25 -7 -32 13 -39 22 -7 51 3 51 17 0 13 -30 37 -46
38 -7 0 -15 -7 -18 -16z"/>
<path d="M3885 6120 c-3 -5 -1 -10 4 -10 6 0 11 5 11 10 0 6 -2 10 -4 10 -3 0
-8 -4 -11 -10z"/>
<path d="M3803 6086 c5 -16 27 -19 27 -3 0 7 -7 14 -15 14 -9 0 -14 -5 -12
-11z"/>
<path d="M5846 6074 c-9 -23 -8 -24 14 -24 13 0 20 7 20 20 0 24 -25 27 -34 4z"/>
<path d="M4010 6061 c0 -6 5 -13 11 -17 6 -3 19 -20 30 -38 l20 -31 -7 30
c-10 43 -54 88 -54 56z"/>
<path d="M3768 5966 c-16 -5 -28 -16 -28 -23 0 -7 -4 -13 -9 -13 -4 0 -6 -11
-3 -25 2 -14 11 -25 18 -25 8 0 14 -7 14 -15 0 -8 4 -15 9 -15 5 0 16 -2 23
-5 19 -7 45 62 29 78 -6 6 -11 19 -11 28 0 24 -10 28 -42 15z"/>
<path d="M3370 5960 c0 -5 5 -10 10 -10 6 0 10 5 10 10 0 6 -4 10 -10 10 -5 0
-10 -4 -10 -10z"/>
<path d="M6769 5829 c-13 -25 0 -43 27 -37 12 2 20 13 22 31 3 22 -1 27 -17
27 -11 0 -25 -9 -32 -21z"/>
<path d="M4180 5796 c0 -9 5 -16 10 -16 6 0 10 4 10 9 0 6 -4 13 -10 16 -5 3
-10 -1 -10 -9z"/>
<path d="M3890 5784 c0 -8 5 -12 10 -9 6 4 8 11 5 16 -9 14 -15 11 -15 -7z"/>
<path d="M5273 5785 c-3 -9 -3 -18 0 -21 9 -9 27 6 27 22 0 19 -19 18 -27 -1z"/>
<path d="M4207 5763 c-12 -11 -8 -23 8 -23 8 0 15 7 15 15 0 16 -12 20 -23 8z"/>
<path d="M3330 5716 c0 -21 6 -36 15 -40 22 -8 30 20 15 50 -19 34 -30 30 -30
-10z"/>
<path d="M5125 5731 c-3 -5 -1 -12 5 -16 5 -3 10 1 10 9 0 18 -6 21 -15 7z"/>
<path d="M5967 5734 c-9 -9 4 -35 14 -28 5 3 9 12 9 20 0 14 -12 19 -23 8z"/>
<path d="M3847 5723 c-4 -3 -7 -11 -7 -17 0 -6 5 -5 12 2 6 6 9 14 7 17 -3 3
-9 2 -12 -2z"/>
<path d="M8425 5670 c-3 -5 -1 -10 4 -10 6 0 11 5 11 10 0 6 -2 10 -4 10 -3 0
-8 -4 -11 -10z"/>
<path d="M8456 5654 c-10 -25 -7 -34 9 -34 9 0 15 9 15 25 0 28 -15 34 -24 9z"/>
<path d="M4292 5646 c1 -10 8 -17 13 -17 15 1 12 24 -3 29 -9 3 -13 -2 -10
-12z"/>
<path d="M3755 5633 c-8 -23 13 -42 25 -23 13 21 12 27 -4 33 -8 3 -17 -1 -21
-10z"/>
<path d="M4996 5643 c-3 -3 -6 -17 -6 -30 0 -22 2 -23 15 -9 8 8 15 19 15 25
0 13 -15 22 -24 14z"/>
<path d="M3842 5583 c-8 -27 -8 -41 1 -57 6 -12 10 -25 9 -30 -2 -4 2 -14 8
-22 7 -7 9 -22 5 -34 -4 -11 -3 -34 0 -51 12 -54 95 -72 95 -20 0 9 6 25 14
36 27 40 25 72 -5 94 -17 12 -26 27 -23 35 4 10 -2 16 -18 18 -14 2 -24 11
-26 24 -2 12 -13 26 -26 32 -21 9 -24 7 -34 -25z"/>
<path d="M3312 5583 c-10 -4 -10 -8 -1 -19 17 -20 34 -17 18 4 -11 14 -10 14
9 -2 17 -15 20 -22 10 -33 -9 -11 -9 -16 3 -23 11 -7 15 -3 17 21 5 45 -18 67
-56 52z"/>
<path d="M3970 5577 c0 -19 10 -27 26 -20 21 8 17 33 -6 33 -11 0 -20 -6 -20
-13z"/>
<path d="M6410 5575 c-16 -19 -9 -58 11 -61 28 -3 41 11 34 39 -8 31 -29 41
-45 22z"/>
<path d="M4355 5571 c-3 -5 -1 -12 5 -16 5 -3 10 1 10 9 0 18 -6 21 -15 7z"/>
<path d="M3677 5543 c-12 -11 -8 -23 8 -23 8 0 15 7 15 15 0 16 -12 20 -23 8z"/>
<path d="M3284 5499 c-3 -6 0 -15 7 -20 8 -5 15 -4 17 1 2 6 13 10 25 10 26 0
20 5 -15 14 -16 3 -30 1 -34 -5z"/>
<path d="M8523 5492 c-6 -4 -13 -16 -15 -27 -2 -14 3 -20 17 -20 11 0 21 8 23
19 5 22 -9 38 -25 28z"/>
<path d="M3217 5475 c-7 -18 46 -58 71 -53 14 3 12 9 -15 36 -35 35 -48 39
-56 17z"/>
<path d="M5366 5475 c-7 -20 3 -45 19 -45 19 0 27 17 20 40 -7 24 -30 26 -39
5z"/>
<path d="M5040 5404 c0 -8 5 -12 10 -9 6 3 10 10 10 16 0 5 -4 9 -10 9 -5 0
-10 -7 -10 -16z"/>
<path d="M3233 5380 c-23 -9 -37 -45 -31 -77 4 -21 73 -32 91 -14 8 8 -2 11
-35 11 -37 0 -46 3 -44 18 0 9 10 22 21 29 11 7 16 12 11 13 -5 0 -3 7 4 15
14 17 13 17 -17 5z"/>
<path d="M8440 5356 c0 -9 30 -14 35 -6 4 6 -3 10 -14 10 -12 0 -21 -2 -21 -4z"/>
<path d="M8460 5313 c0 -7 5 -13 10 -13 6 0 10 -6 10 -14 0 -32 16 -23 17 9 1
27 -3 33 -18 32 -10 -1 -19 -7 -19 -14z"/>
<path d="M8306 5281 c-9 -14 5 -42 18 -38 15 5 14 39 -1 44 -6 2 -14 0 -17 -6z"/>
<path d="M3197 5133 c-11 -17 21 -39 35 -25 9 9 8 12 -4 12 -9 0 -18 5 -20 12
-3 8 -6 9 -11 1z"/>
<path d="M5627 5116 c-44 -25 -46 -32 -9 -38 15 -3 34 -8 43 -12 13 -6 18 0
21 28 5 44 -7 49 -55 22z"/>
<path d="M8488 5109 c-10 -5 -18 -16 -18 -23 0 -20 29 -28 45 -12 20 20 -3 49
-27 35z"/>
<path d="M5930 5029 c0 -18 66 -40 92 -30 22 9 22 10 -14 25 -43 18 -78 21
-78 5z"/>
<path d="M8203 5033 c-34 -13 0 -78 35 -66 15 6 16 45 0 61 -13 13 -16 13 -35
5z"/>
<path d="M8360 5000 c-14 -26 -4 -42 23 -38 29 4 38 18 26 40 -13 24 -36 23
-49 -2z"/>
<path d="M5790 4985 c0 -8 14 -22 30 -32 38 -22 38 -39 0 -61 -31 -18 -42 -39
-14 -28 11 4 14 0 12 -17 -4 -31 25 -29 32 3 4 16 14 26 27 28 19 3 21 6 11
28 -10 20 -8 27 8 39 16 12 17 16 4 24 -8 5 -17 8 -21 5 -4 -2 -25 3 -48 11
-35 12 -41 12 -41 0z"/>
<path d="M8470 4981 c0 -11 -4 -23 -10 -26 -5 -3 -7 0 -4 8 3 8 1 18 -5 22 -7
4 -11 -5 -11 -24 0 -33 13 -39 36 -17 16 17 18 42 4 51 -5 3 -10 -3 -10 -14z"/>
<path d="M3130 4930 c0 -17 27 -65 44 -79 21 -18 20 -9 -6 44 -22 42 -38 57
-38 35z"/>
<path d="M4390 4900 c0 -5 7 -10 15 -10 8 0 15 5 15 10 0 6 -7 10 -15 10 -8 0
-15 -4 -15 -10z"/>
<path d="M3037 4893 c-15 -14 -6 -23 18 -17 14 3 25 2 25 -4 0 -5 8 -13 18
-16 10 -4 6 4 -11 19 -29 26 -39 30 -50 18z"/>
<path d="M4420 4870 c-9 -6 -10 -10 -3 -10 6 0 15 5 18 10 8 12 4 12 -15 0z"/>
<path d="M5745 4870 c3 -5 8 -10 11 -10 2 0 4 5 4 10 0 6 -5 10 -11 10 -5 0
-7 -4 -4 -10z"/>
<path d="M8045 4711 c-3 -5 -1 -12 5 -16 5 -3 10 1 10 9 0 18 -6 21 -15 7z"/>
<path d="M3953 4594 c-7 -18 6 -45 26 -52 9 -3 11 6 9 29 -3 36 -24 50 -35 23z"/>
<path d="M8275 4540 c-7 -12 2 -30 16 -30 5 0 9 9 9 20 0 21 -15 27 -25 10z"/>
<path d="M4280 4505 c-12 -32 -13 -45 -1 -27 6 11 11 10 25 -4 17 -16 17 -15
14 16 -4 42 -25 50 -38 15z"/>
<path d="M6372 4508 c-14 -14 -16 -35 -3 -43 13 -8 31 28 22 43 -5 9 -10 9
-19 0z"/>
<path d="M6353 4345 c-13 -14 -7 -25 14 -25 14 0 18 26 6 33 -5 3 -13 -1 -20
-8z"/>
<path d="M9270 4321 c-23 -43 -13 -59 39 -66 28 -4 57 -2 67 3 14 8 9 15 -31
46 -55 42 -61 43 -75 17z"/>
<path d="M5745 4310 c-3 -5 -1 -10 4 -10 6 0 11 5 11 10 0 6 -2 10 -4 10 -3 0
-8 -4 -11 -10z"/>
<path d="M4970 4248 c0 -19 2 -20 10 -8 13 19 13 30 0 30 -5 0 -10 -10 -10
-22z"/>
<path d="M4415 4200 c-7 -12 2 -30 16 -30 5 0 9 9 9 20 0 21 -15 27 -25 10z"/>
<path d="M4570 4190 c0 -11 4 -20 9 -20 11 0 22 26 14 34 -12 12 -23 5 -23
-14z"/>
<path d="M8590 4120 c0 -5 5 -10 11 -10 5 0 7 5 4 10 -3 6 -8 10 -11 10 -2 0
-4 -4 -4 -10z"/>
<path d="M4497 4104 c-11 -11 -8 -26 3 -19 6 3 10 -2 11 -12 0 -10 3 -13 5 -6
7 15 -10 46 -19 37z"/>
<path d="M4640 4023 c0 -4 7 -17 15 -27 19 -26 20 -57 1 -50 -18 7 -25 -39
-12 -81 5 -16 11 -36 13 -44 3 -11 8 -9 19 8 15 21 14 23 -13 47 -27 23 -27
24 -5 24 12 0 22 5 22 10 0 6 5 10 10 10 6 0 9 -3 9 -7 -5 -29 2 -36 19 -20
11 10 26 14 41 10 18 -4 22 -2 19 8 -3 8 -11 13 -17 11 -8 -1 -8 4 1 18 11 16
9 22 -9 39 -11 11 -24 17 -27 14 -3 -4 -6 -1 -6 6 0 7 -6 11 -14 8 -8 -3 -16
-2 -18 2 -4 11 -48 24 -48 14z m80 -47 c0 -3 -4 -8 -10 -11 -5 -3 -10 -1 -10
4 0 6 5 11 10 11 6 0 10 -2 10 -4z"/>
<path d="M4787 3853 c-13 -12 -7 -43 8 -43 9 0 15 9 15 25 0 24 -10 32 -23 18z"/>
<path d="M4730 3785 c0 -9 5 -15 11 -13 6 2 11 8 11 13 0 5 -5 11 -11 13 -6 2
-11 -4 -11 -13z"/>
<path d="M5950 3740 c0 -5 5 -10 10 -10 6 0 10 5 10 10 0 6 -4 10 -10 10 -5 0
-10 -4 -10 -10z"/>
<path d="M5805 3698 c11 -8 33 -18 48 -22 15 -4 25 -11 22 -16 -3 -5 -1 -11 4
-14 5 -4 8 2 6 11 -2 10 -4 21 -4 24 -1 4 -13 9 -28 11 -16 3 -37 9 -48 13
l-20 7 20 -14z"/>
</g>
</svg>
