<?xml version="1.0" encoding="UTF-8"?>
<!DOCTYPE svg PUBLIC "-//W3C//DTD SVG 1.1//EN" "http://www.w3.org/Graphics/SVG/1.1/DTD/svg11.dtd">
<svg xmlns="http://www.w3.org/2000/svg" version="1.1" width="18px" height="18px" style="shape-rendering:geometricPrecision; text-rendering:geometricPrecision; image-rendering:optimizeQuality; fill-rule:evenodd; clip-rule:evenodd" xmlns:xlink="http://www.w3.org/1999/xlink">
<g><path style="opacity:0.843" fill="#fe0000" d="M -0.5,-0.5 C 0.5,-0.5 1.5,-0.5 2.5,-0.5C 4.14552,1.8122 6.14552,3.8122 8.5,5.5C 10.8545,3.8122 12.8545,1.8122 14.5,-0.5C 15.5,-0.5 16.5,-0.5 17.5,-0.5C 17.5,0.5 17.5,1.5 17.5,2.5C 15.1878,4.14552 13.1878,6.14552 11.5,8.5C 13.1878,10.8545 15.1878,12.8545 17.5,14.5C 17.5,15.5 17.5,16.5 17.5,17.5C 16.5,17.5 15.5,17.5 14.5,17.5C 12.8545,15.1878 10.8545,13.1878 8.5,11.5C 6.14552,13.1878 4.14552,15.1878 2.5,17.5C 1.5,17.5 0.5,17.5 -0.5,17.5C -0.5,16.5 -0.5,15.5 -0.5,14.5C 1.8122,12.8545 3.8122,10.8545 5.5,8.5C 3.8122,6.14552 1.8122,4.14552 -0.5,2.5C -0.5,1.5 -0.5,0.5 -0.5,-0.5 Z"/></g>
</svg>
