<?xml version="1.0" standalone="no"?>
<!DOCTYPE svg PUBLIC "-//W3C//DTD SVG 20010904//EN"
 "http://www.w3.org/TR/2001/REC-SVG-20010904/DTD/svg10.dtd">
<svg version="1.0" xmlns="http://www.w3.org/2000/svg"
 width="470.000000pt" height="470.000000pt" viewBox="0 0 470.000000 470.000000"
 preserveAspectRatio="xMidYMid meet">
<metadata>
Created by potrace 1.14, written by Peter Selinger 2001-2017
</metadata>
<g transform="translate(0.000000,470.000000) scale(0.100000,-0.100000)"
fill="#000000" stroke="none">
<path d="M2146 4029 l-197 -340 19 -27 c10 -15 48 -79 85 -142 36 -63 104
-182 152 -265 48 -82 121 -208 162 -280 40 -71 78 -137 83 -145 12 -18 235
-405 272 -470 65 -116 265 -462 300 -518 21 -34 38 -64 38 -67 0 -2 25 -45 55
-96 30 -50 55 -93 55 -94 0 -1 58 -103 129 -226 l130 -224 395 -1 c218 0 396
2 396 4 0 2 -8 16 -19 30 -10 15 -20 32 -22 37 -4 10 -111 197 -162 283 -15
26 -32 56 -37 67 -6 11 -14 27 -20 35 -35 54 -90 152 -90 160 0 6 -3 10 -7 10
-5 0 -19 23 -32 50 -14 28 -29 50 -33 50 -4 0 -7 3 -6 8 2 6 -93 174 -243 430
-9 15 -27 47 -41 72 -14 25 -34 60 -44 77 -25 43 -302 524 -333 577 -13 22
-73 127 -134 231 -60 105 -119 206 -130 225 -20 36 -105 184 -144 248 -12 20
-25 44 -30 52 -23 48 -88 156 -95 158 -4 2 -8 8 -8 13 0 6 -25 54 -56 107 -31
53 -71 122 -88 152 -17 30 -45 79 -61 107 -17 29 -33 53 -36 53 -4 0 -95 -153
-203 -341z"/>
<path d="M1847 3513 c-24 -43 -86 -150 -138 -238 -51 -88 -101 -176 -111 -195
-10 -19 -24 -44 -31 -55 -19 -30 -51 -85 -79 -135 -33 -58 -495 -860 -507
-880 -57 -91 -224 -388 -224 -397 0 -7 -4 -13 -8 -13 -4 0 -33 -46 -65 -102
-33 -57 -67 -116 -77 -133 -10 -16 -20 -38 -23 -47 -4 -10 -10 -18 -15 -18 -5
0 -9 -4 -9 -9 0 -5 -37 -73 -83 -152 -165 -285 -361 -625 -374 -649 -8 -14
-23 -41 -35 -60 -11 -19 -31 -54 -45 -77 l-25 -43 461 0 461 0 -10 26 c-10 25
4 54 97 209 7 11 16 27 20 35 4 8 26 47 48 85 23 39 53 90 67 115 14 25 49 86
78 135 29 50 64 110 78 135 27 48 266 463 301 521 11 19 26 45 34 59 27 50
250 436 265 460 9 14 17 27 17 30 0 3 8 16 17 30 15 24 100 172 156 270 14 25
62 108 107 185 45 77 85 147 88 155 4 8 16 29 26 46 l19 32 -34 56 c-19 31
-34 59 -34 62 0 8 -54 89 -65 96 -5 4 -6 8 -1 8 4 0 1 11 -8 24 -8 14 -25 42
-37 63 -29 52 -251 437 -254 441 -1 2 -23 -32 -48 -75z"/>
<path d="M2838 1030 l-1437 -5 -129 -225 c-71 -124 -164 -283 -205 -355 l-76
-130 1846 -3 c1016 -1 1848 0 1851 2 3 4 -28 62 -75 141 -7 11 -16 27 -20 35
-4 8 -61 107 -126 220 -66 113 -133 230 -150 260 -16 30 -32 57 -36 60 -3 3
-653 3 -1443 0z"/>
</g>
</svg>
