<?xml version="1.0" encoding="UTF-8"?>
<!DOCTYPE svg PUBLIC "-//W3C//DTD SVG 1.1//EN" "http://www.w3.org/Graphics/SVG/1.1/DTD/svg11.dtd">
<svg xmlns="http://www.w3.org/2000/svg" version="1.1" width="189px" height="306px" style="shape-rendering:geometricPrecision; text-rendering:geometricPrecision; image-rendering:optimizeQuality; fill-rule:evenodd; clip-rule:evenodd" xmlns:xlink="http://www.w3.org/1999/xlink">
<g><path style="opacity:0.685" fill="#00be00" d="M 33.5,-0.5 C 34.5,-0.5 35.5,-0.5 36.5,-0.5C 86.8333,50.5 137.5,101.167 188.5,151.5C 188.5,152.167 188.5,152.833 188.5,153.5C 137.5,203.833 86.8333,254.5 36.5,305.5C 35.5,305.5 34.5,305.5 33.5,305.5C 22.5,293.833 11.1667,282.5 -0.5,271.5C -0.5,270.5 -0.5,269.5 -0.5,268.5C 38.479,230.188 77.1457,191.521 115.5,152.5C 77.1457,113.479 38.479,74.8123 -0.5,36.5C -0.5,35.5 -0.5,34.5 -0.5,33.5C 11.1667,22.5 22.5,11.1667 33.5,-0.5 Z"/></g>
</svg>
