<?xml version="1.0" encoding="UTF-8"?>
<!DOCTYPE svg PUBLIC "-//W3C//DTD SVG 1.1//EN" "http://www.w3.org/Graphics/SVG/1.1/DTD/svg11.dtd">
<svg xmlns="http://www.w3.org/2000/svg" version="1.1" width="612px" height="471px" style="shape-rendering:geometricPrecision; text-rendering:geometricPrecision; image-rendering:optimizeQuality; fill-rule:evenodd; clip-rule:evenodd" xmlns:xlink="http://www.w3.org/1999/xlink">
<g><path style="opacity:0.985" fill="#006500" d="M 549.5,-0.5 C 553.167,-0.5 556.833,-0.5 560.5,-0.5C 563.9,1.03697 567.233,2.8703 570.5,5C 582.333,16.8333 594.167,28.6667 606,40.5C 608.13,43.7667 609.963,47.1 611.5,50.5C 611.5,54.1667 611.5,57.8333 611.5,61.5C 610.579,64.676 609.079,67.676 607,70.5C 480.636,201.197 354.636,332.197 229,463.5C 225.846,466.512 222.346,468.845 218.5,470.5C 213.5,470.5 208.5,470.5 203.5,470.5C 197.311,466.824 191.811,462.158 187,456.5C 128,392.833 69,329.167 10,265.5C 6.20905,259.905 2.70905,254.239 -0.5,248.5C -0.5,244.167 -0.5,239.833 -0.5,235.5C 0.895182,232.858 2.39518,230.191 4,227.5C 17.5611,213.27 31.7277,199.77 46.5,187C 53.6246,184.799 60.6246,185.133 67.5,188C 72.6344,192.133 77.4677,196.633 82,201.5C 123.133,246.301 164.633,290.801 206.5,335C 209.776,337.387 213.109,337.721 216.5,336C 224.303,329.198 231.803,322.031 239,314.5C 336.667,212.833 434.333,111.167 532,9.5C 537.489,5.50723 543.322,2.1739 549.5,-0.5 Z"/></g>
</svg>
