<?xml version="1.0" encoding="UTF-8"?>
<!DOCTYPE svg PUBLIC "-//W3C//DTD SVG 1.1//EN" "http://www.w3.org/Graphics/SVG/1.1/DTD/svg11.dtd">
<svg xmlns="http://www.w3.org/2000/svg" version="1.1" width="189px" height="306px" style="shape-rendering:geometricPrecision; text-rendering:geometricPrecision; image-rendering:optimizeQuality; fill-rule:evenodd; clip-rule:evenodd" xmlns:xlink="http://www.w3.org/1999/xlink">
<g><path style="opacity:0.685" fill="#00be00" d="M 151.5,-0.5 C 152.5,-0.5 153.5,-0.5 154.5,-0.5C 165.5,11.1667 176.833,22.5 188.5,33.5C 188.5,34.5 188.5,35.5 188.5,36.5C 149.521,74.8123 110.854,113.479 72.5,152.5C 110.854,191.521 149.521,230.188 188.5,268.5C 188.5,269.5 188.5,270.5 188.5,271.5C 176.833,282.5 165.5,293.833 154.5,305.5C 153.5,305.5 152.5,305.5 151.5,305.5C 101.167,254.5 50.5,203.833 -0.5,153.5C -0.5,152.833 -0.5,152.167 -0.5,151.5C 50.5,101.167 101.167,50.5 151.5,-0.5 Z"/></g>
</svg>
