<?xml version="1.0" encoding="UTF-8"?>
<!DOCTYPE svg PUBLIC "-//W3C//DTD SVG 1.1//EN" "http://www.w3.org/Graphics/SVG/1.1/DTD/svg11.dtd">
<svg xmlns="http://www.w3.org/2000/svg" version="1.1" width="13px" height="20px" style="shape-rendering:geometricPrecision; text-rendering:geometricPrecision; image-rendering:optimizeQuality; fill-rule:evenodd; clip-rule:evenodd" xmlns:xlink="http://www.w3.org/1999/xlink">
<g><path style="opacity:0.768" fill="#fefffe" d="M 0.5,-0.5 C 1.5,-0.5 2.5,-0.5 3.5,-0.5C 6.16667,2.83333 9.16667,5.83333 12.5,8.5C 12.5,9.16667 12.5,9.83333 12.5,10.5C 9.16667,13.1667 6.16667,16.1667 3.5,19.5C 2.5,19.5 1.5,19.5 0.5,19.5C 0.5,18.8333 0.166667,18.5 -0.5,18.5C -0.5,17.5 -0.5,16.5 -0.5,15.5C 2.40735,14.2659 4.74068,12.2659 6.5,9.5C 4.74068,6.73408 2.40735,4.73408 -0.5,3.5C -0.5,2.5 -0.5,1.5 -0.5,0.5C 0.166667,0.5 0.5,0.166667 0.5,-0.5 Z"/></g>
</svg>
