<?xml version="1.0" encoding="UTF-8"?>
<!DOCTYPE svg PUBLIC "-//W3C//DTD SVG 1.1//EN" "http://www.w3.org/Graphics/SVG/1.1/DTD/svg11.dtd">
<svg xmlns="http://www.w3.org/2000/svg" version="1.1" width="13px" height="20px" style="shape-rendering:geometricPrecision; text-rendering:geometricPrecision; image-rendering:optimizeQuality; fill-rule:evenodd; clip-rule:evenodd" xmlns:xlink="http://www.w3.org/1999/xlink">
<g><path style="opacity:0.768" fill="#fefffe" d="M 8.5,-0.5 C 9.5,-0.5 10.5,-0.5 11.5,-0.5C 11.5,0.166667 11.8333,0.5 12.5,0.5C 12.5,1.5 12.5,2.5 12.5,3.5C 9.59265,4.73408 7.25932,6.73408 5.5,9.5C 7.25932,12.2659 9.59265,14.2659 12.5,15.5C 12.5,16.5 12.5,17.5 12.5,18.5C 11.8333,18.5 11.5,18.8333 11.5,19.5C 10.5,19.5 9.5,19.5 8.5,19.5C 5.83333,16.1667 2.83333,13.1667 -0.5,10.5C -0.5,9.83333 -0.5,9.16667 -0.5,8.5C 2.83333,5.83333 5.83333,2.83333 8.5,-0.5 Z"/></g>
</svg>
